<svg xmlns="http://www.w3.org/2000/svg" xmlns:xlink="http://www.w3.org/1999/xlink" width="100%" height="100%" viewBox="0 0 256 256" fill-rule="evenodd" stroke-linecap="round" stroke-linejoin="round" stroke-miterlimit="1.5" xmlns:v="https://vecta.io/nano"><style><![CDATA[.B{fill-rule:nonzero}]]></style><g transform="translate(-.1 -.1)"><path d="M254.4 45.71c0-24.235-19.675-43.91-43.91-43.91H45.71C21.475 1.8 1.8 21.475 1.8 45.71v164.78c0 24.235 19.675 43.91 43.91 43.91h164.78c24.235 0 43.91-19.675 43.91-43.91V45.71z" fill="#fff" stroke="#000" stroke-width="1.253"/><g transform="matrix(.940266 0 0 .940266 -61.8107 10.0904)" class="B"><g fill="#008bff"><use xlink:href="#C"/><path d="M179.531 32.825a.53.53 0 0 1-.576-.443l-7.135-21.625c-.044-.044-.044-.133-.044-.222 0-.266.177-.399.487-.399h4.52c.31 0 .532.133.62.443l4.298 14.801c.044.089.089.133.133.133s.089-.044.133-.133l4.298-14.801c.089-.31.31-.443.62-.443l4.52.089c.177 0 .31.044.399.177.089.089.089.222.044.443l-7.09 21.536a.53.53 0 0 1-.576.443h-4.653z"/><use xlink:href="#C" x="44.137"/><path d="M229.383 9.826c2.393 0 4.298.709 5.761 2.127 1.418 1.418 2.127 3.368 2.127 5.805v14.535c0 .133-.044.266-.133.355a.54.54 0 0 1-.399.177h-4.077c-.133 0-.266-.044-.355-.177-.133-.089-.177-.222-.177-.355V18.822c0-1.374-.399-2.482-1.152-3.324-.753-.798-1.773-1.241-3.058-1.241s-2.304.399-3.102 1.241c-.753.842-1.152 1.905-1.152 3.279v13.516c0 .133-.044.266-.177.355-.089.133-.222.177-.355.177h-4.077c-.133 0-.266-.044-.355-.177-.133-.089-.177-.222-.177-.355v-21.58c0-.133.044-.266.177-.355.089-.133.222-.177.355-.177h4.077c.133 0 .266.044.355.177.133.089.177.222.177.355v1.418c0 .089.044.133.089.177s.089 0 .133-.089c1.196-1.595 3.058-2.393 5.495-2.393zm25.259 3.989c0 .133-.044.266-.133.355a.54.54 0 0 1-.399.177h-4.52c-.133 0-.222.089-.222.222v10.68c0 1.108.266 1.95.753 2.437s1.241.753 2.304.753h1.329c.133 0 .266.044.399.133.089.133.133.266.133.399v3.324c0 .31-.177.532-.532.576l-2.304.044c-2.349 0-4.077-.399-5.229-1.196s-1.728-2.304-1.773-4.52V14.568c0-.133-.089-.222-.222-.222H241.7c-.133 0-.266-.044-.355-.177-.133-.089-.177-.222-.177-.355v-3.102c0-.133.044-.266.177-.355.089-.133.222-.177.355-.177h2.526c.133 0 .222-.089.222-.222V4.775a.54.54 0 0 1 .177-.399c.089-.089.222-.133.355-.133h3.855c.133 0 .266.044.399.133.089.133.133.266.133.399V9.96c0 .133.089.222.222.222h4.52a.54.54 0 0 1 .399.177c.089.089.133.222.133.355v3.102z"/></g><g fill="#0f1031"><path d="M114.084 72.907c-1.476 0-2.832-.239-3.948-.718-1.196-.479-2.074-1.117-2.672-1.914-.638-.798-.957-1.675-.957-2.672v-.479c0-.279.12-.399.399-.399h1.914c.279 0 .399.12.399.399v.319c0 .877.479 1.635 1.396 2.273.917.678 2.034.997 3.43.997s2.513-.319 3.35-.957c.838-.598 1.276-1.396 1.276-2.353 0-.678-.199-1.196-.678-1.635-.399-.439-.917-.758-1.516-.997s-1.555-.558-2.792-.917l-3.669-1.276c-.957-.439-1.755-1.037-2.393-1.795-.678-.758-.997-1.715-.997-2.872 0-1.715.678-3.071 1.994-4.068s3.071-1.516 5.264-1.516c1.476 0 2.752.239 3.908.718 1.117.479 1.994 1.117 2.592 1.954a4.8 4.8 0 0 1 .917 2.832v.12c0 .279-.12.399-.399.399h-1.874c-.279 0-.399-.12-.399-.399v-.12c0-.917-.439-1.675-1.276-2.273-.877-.598-2.034-.917-3.51-.917-1.356 0-2.433.279-3.27.798-.838.558-1.236 1.316-1.236 2.273 0 .917.399 1.595 1.196 2.074s2.034.957 3.709 1.436c1.555.439 2.792.877 3.749 1.276s1.795.957 2.473 1.715 1.037 1.755 1.037 2.991c0 1.715-.678 3.111-2.034 4.148s-3.151 1.555-5.384 1.555zm14.477-24.049c-.638 0-1.157-.199-1.595-.638s-.638-.957-.638-1.595c0-.678.199-1.196.638-1.635.439-.399.957-.598 1.595-.598a2.26 2.26 0 0 1 1.595.598c.439.439.638.957.638 1.635 0 .638-.199 1.157-.638 1.595s-.957.638-1.595.638zm-1.117 23.81c-.279 0-.399-.12-.399-.399V52.886c0-.279.12-.399.399-.399h2.034c.279 0 .399.12.399.399v19.383c0 .279-.12.399-.399.399h-2.034zm17.748-20.42c2.114 0 3.829.638 5.105 1.874 1.236 1.236 1.874 2.911 1.874 5.025v13.161c0 .279-.12.399-.399.399h-2.034c-.279 0-.399-.12-.399-.399V59.706c0-1.476-.439-2.672-1.316-3.589-.917-.917-2.074-1.396-3.47-1.396-1.476 0-2.632.439-3.55 1.356s-1.356 2.074-1.356 3.55V72.31c0 .279-.12.399-.399.399h-2.034c-.279 0-.399-.12-.399-.399V52.926c0-.279.12-.399.399-.399h2.034c.279 0 .399.12.399.399v1.715c0 .04.04.08.08.12s.04 0 .08-.04c1.157-1.635 2.951-2.473 5.384-2.473z"/><use xlink:href="#D"/><path d="M180.049 72.707c-.279 0-.399-.12-.399-.399v-27.12c0-.279.12-.399.399-.399h2.034c.279 0 .399.12.399.399v27.12c0 .279-.12.399-.399.399h-2.034z"/><use xlink:href="#E"/><path d="M233.73 57.552c.399 1.276.598 2.951.598 5.065s-.16 3.789-.518 4.945c-.479 1.715-1.356 3.031-2.632 3.988-1.236.997-2.832 1.476-4.746 1.476-1.037 0-1.994-.199-2.872-.638-.877-.399-1.595-.997-2.194-1.755-.04-.04-.08-.08-.12-.08-.04.04-.08.08-.08.12v9.372c0 .279-.12.399-.399.399h-2.034c-.279 0-.399-.12-.399-.399v-27.12c0-.279.12-.399.399-.399h2.034c.279 0 .399.12.399.399V54.6c0 .04.04.08.08.08.04.04.08 0 .12-.04.598-.758 1.316-1.356 2.194-1.795.838-.439 1.795-.638 2.872-.638 1.874 0 3.43.479 4.666 1.436 1.276.957 2.154 2.273 2.632 3.908zm-3.151 10.09c.279-.598.518-1.236.638-1.994.16-.718.239-1.715.239-3.031 0-1.236-.04-2.233-.16-2.951-.12-.678-.279-1.316-.558-1.874-.319-.957-.877-1.715-1.675-2.273-.838-.558-1.795-.838-2.911-.838-1.077 0-1.954.279-2.672.838s-1.236 1.316-1.595 2.233c-.239.518-.399 1.157-.518 1.874s-.16 1.715-.16 2.991.04 2.273.16 2.991c.12.758.279 1.396.558 1.954.319.917.838 1.635 1.595 2.154.718.558 1.595.838 2.592.838 1.077 0 1.994-.279 2.792-.798.758-.518 1.316-1.236 1.675-2.114zm16.473-15.434c2.393 0 4.228.598 5.544 1.835s1.954 2.832 1.954 4.866v13.4c0 .279-.12.399-.399.399h-2.034c-.279 0-.399-.12-.399-.399v-1.635c0-.04 0-.08-.04-.12s-.12 0-.16.04c-.678.798-1.516 1.396-2.592 1.795-1.077.439-2.233.638-3.55.638-1.874 0-3.47-.479-4.746-1.436s-1.914-2.433-1.914-4.387c0-1.994.718-3.589 2.194-4.746 1.436-1.117 3.43-1.715 6.022-1.715h4.626c.12 0 .16-.04.16-.16v-1.516c0-1.356-.359-2.433-1.117-3.23-.758-.758-1.954-1.157-3.55-1.157-1.276 0-2.313.239-3.111.718-.798.518-1.276 1.196-1.476 2.074-.08.279-.239.399-.479.359l-2.154-.279c-.279-.04-.399-.16-.359-.319.199-1.476.997-2.712 2.393-3.629s3.111-1.396 5.185-1.396zm-1.117 18.386c1.555 0 2.911-.399 4.068-1.196 1.157-.758 1.715-1.835 1.715-3.151v-3.111c0-.12-.04-.16-.16-.16h-4.188c-1.755 0-3.151.359-4.228 1.077s-1.595 1.715-1.595 2.991c0 1.157.399 2.034 1.236 2.632.798.598 1.835.917 3.151.917z"/><use xlink:href="#D" x="102.138"/><use xlink:href="#E" x="92.965"/></g></g><g transform="matrix(.946501 0 0 .946192 5.57265 30.264)"><g transform="matrix(.874814 0 0 .874814 14.6494 3.34407)"><use xlink:href="#F" fill="#fff"/><clipPath id="A"><use xlink:href="#F"/></clipPath><g clip-path="url(#A)"><path d="M54.663 101.162h153.138v36.158H54.663z" fill="#008bff"/></g><use xlink:href="#F" fill="none" stroke="#0f1031" stroke-width="5.74"/></g><g fill="#0f1031"><use xlink:href="#G" transform="matrix(.615774 0 0 1.49855 56.246 -147.69)"/><use xlink:href="#G" transform="matrix(.615774 0 0 1.49855 136.162 -147.69)"/></g><g fill="#d5d4d2"><path d="M105.428 139.162c0-3.108-2.522-5.63-5.628-5.63H88.535c-3.106 0-5.628 2.522-5.628 5.63v11.261c0 3.107 2.522 5.63 5.628 5.63H99.8c3.106 0 5.628-2.523 5.628-5.63v-11.261zm70.571 0c0-3.108-2.521-5.63-5.629-5.63h-52.913c-3.108 0-5.629 2.522-5.629 5.63v11.261c0 3.107 2.521 5.63 5.629 5.63h52.913c3.108 0 5.629-2.523 5.629-5.63v-11.261z"/><use xlink:href="#H"/><use xlink:href="#H" y="28.923"/></g></g></g><defs ><path id="C" d="M169.516 18.955c.133.753.177 1.551.177 2.482l-.044 1.374c0 .355-.177.532-.532.532h-13.87c-.133 0-.222.089-.222.222.089.975.222 1.64.399 1.994.709 2.127 2.437 3.191 5.185 3.235 1.994 0 3.589-.842 4.786-2.482.133-.177.266-.266.443-.266.133 0 .222.044.31.133l2.747 2.26c.266.222.31.443.133.709-.931 1.285-2.127 2.304-3.634 3.013-1.551.709-3.235 1.064-5.096 1.064-2.304 0-4.254-.532-5.849-1.551-1.64-1.019-2.792-2.482-3.545-4.343-.665-1.595-1.019-3.811-1.019-6.647 0-1.728.177-3.102.532-4.165.576-2.083 1.728-3.722 3.368-4.875 1.595-1.196 3.589-1.817 5.894-1.817 5.805 0 9.084 3.058 9.838 9.129zm-9.838-4.697c-1.108 0-1.994.266-2.703.798-.753.576-1.241 1.329-1.551 2.304-.177.487-.31 1.152-.355 1.95-.044.133 0 .222.177.222h8.996c.133 0 .222-.089.222-.222-.044-.753-.133-1.285-.266-1.684-.266-1.064-.798-1.905-1.551-2.482-.798-.576-1.773-.886-2.969-.886z"/><path id="D" d="M170.757 52.926c0-.279.12-.399.399-.399h2.034c.279 0 .399.12.399.399v19.104c0 2.991-.838 5.145-2.552 6.541s-4.108 2.074-7.099 2.074c-.598 0-1.077 0-1.396-.04-.279-.04-.399-.16-.399-.439l.08-1.835c0-.12.04-.239.12-.319.08-.04.16-.08.279-.04l1.077.04c2.473 0 4.267-.479 5.384-1.476 1.117-.957 1.675-2.473 1.675-4.586v-1.476c0-.04 0-.08-.04-.12-.04 0-.12.04-.16.08-1.236 1.595-2.951 2.393-5.225 2.393-1.715 0-3.27-.479-4.586-1.396-1.356-.917-2.273-2.233-2.712-3.948-.319-1.077-.479-2.712-.479-4.866l.12-2.951a8.62 8.62 0 0 1 .399-2.154c.479-1.595 1.356-2.872 2.592-3.829 1.236-.997 2.752-1.476 4.507-1.476 2.353 0 4.148.798 5.384 2.353.04.04.12.08.16.04s.04-.08.04-.12v-1.555zm-.199 13.68c.08-.399.12-.877.16-1.476s.04-1.436.04-2.552l-.04-2.752c-.04-.439-.08-.877-.199-1.276-.199-1.117-.718-2.034-1.595-2.792-.798-.718-1.874-1.077-3.151-1.077-1.236 0-2.313.359-3.151 1.077-.877.718-1.476 1.635-1.835 2.792-.279.838-.399 2.194-.399 3.988 0 1.954.12 3.27.399 4.028.279 1.117.838 2.034 1.755 2.752.877.758 1.954 1.117 3.23 1.117 1.316 0 2.393-.359 3.191-1.077.877-.718 1.396-1.635 1.595-2.752z"/><path id="E" d="M204.298 59.227c.12.758.16 1.675.16 2.792v1.276c0 .279-.12.399-.399.399h-12.882c-.12 0-.16.04-.16.16.04 1.476.12 2.393.239 2.832.279 1.196.917 2.154 1.874 2.832s2.194 1.037 3.669 1.037c1.117 0 2.114-.239 2.951-.758s1.516-1.236 1.994-2.154c.16-.239.359-.279.558-.16l1.555.917a.39.39 0 0 1 .16.558c-.678 1.276-1.675 2.273-2.991 2.991-1.316.758-2.872 1.117-4.586 1.117-1.874-.04-3.47-.479-4.746-1.356s-2.194-2.114-2.752-3.669c-.479-1.276-.718-3.111-.718-5.504l.08-2.752c.04-.678.12-1.316.279-1.874.439-1.715 1.356-3.111 2.712-4.148 1.396-1.037 3.031-1.555 4.985-1.555 2.433 0 4.267.598 5.584 1.835s2.114 2.951 2.433 5.185zm-8.016-4.547c-1.316 0-2.393.319-3.23.997-.877.718-1.436 1.595-1.715 2.752-.16.558-.279 1.476-.319 2.712 0 .12.04.16.16.16h10.33c.12 0 .16-.04.16-.16-.04-1.196-.12-2.034-.239-2.552-.279-1.196-.877-2.154-1.755-2.872-.917-.678-2.034-1.037-3.39-1.037z"/><path id="F" d="M207.801 124.133c0-12.678-10.29-22.971-22.963-22.971H77.626c-12.674 0-22.963 10.293-22.963 22.971v107.196c0 12.678 10.289 22.971 22.963 22.971h107.212c12.673 0 22.963-10.293 22.963-22.971V124.133z"/><path id="G" d="M57.829 146.085c0-.87-1.718-1.576-3.833-1.576s-3.834.706-3.834 1.576V173.6c0 .87 1.718 1.576 3.834 1.576s3.833-.706 3.833-1.576v-27.515z"/><path id="H" d="M176 168.085c0-3.108-2.522-5.63-5.63-5.63H88.537c-3.108 0-5.63 2.522-5.63 5.63v11.261c0 3.107 2.522 5.63 5.63 5.63h81.834c3.108 0 5.63-2.523 5.63-5.63v-11.261z"/></defs></svg>