<svg width="48" height="48" viewBox="0 0 48 48" fill="none" xmlns="http://www.w3.org/2000/svg">
<path d="M44 7H4C2.343 7 1 8.343 1 10V38C1 39.657 2.343 41 4 41H44C45.657 41 47 39.657 47 38V10C47 8.343 45.657 7 44 7Z" fill="#007AC6"/>
<path d="M10.533 24.429H12.863L11.698 21.572L10.533 24.429ZM43 19H37.031L35.575 20.571L34.264 19H21.598L20.433 21.571L19.268 19H14.172V20.143L13.59 19H9.222L5 29H10.096L10.678 27.429H12.134L12.716 29H18.394V27.857L18.831 29H21.743L22.18 27.714V29H33.828L35.284 27.429L36.594 29H42.563L38.778 24L43 19ZM25.383 27.571H23.781V22L21.306 27.571H19.85L17.375 22V27.571H14.026L13.444 26H9.95L9.368 27.571H7.475L10.532 20.428H13.007L15.773 27.142V20.428H18.539L20.723 25.285L22.761 20.428H25.527V27.571H25.383ZM39.797 27.571H37.613L35.72 25.142L33.536 27.571H26.984V20.428H33.681L35.719 22.714L37.903 20.428H39.941L36.739 24L39.797 27.571ZM28.586 21.857V23.143H32.226V24.572H28.586V26H32.663L34.556 23.857L32.809 21.857H28.586Z" fill="white"/>
</svg>
