<svg width="48" height="48" viewBox="0 0 48 48" fill="none" xmlns="http://www.w3.org/2000/svg">
<path d="M47 23.807V10C47 8.343 45.657 7 44 7H4C2.343 7 1 8.343 1 10V38C1 39.657 2.343 41 4 41H14.589C30.229 38.811 43.003 30.094 47 23.807Z" fill="white"/>
<path d="M47 37.9999V23.8069C43.003 30.0939 30.229 38.8109 14.589 40.9999H44C45.657 40.9999 47 39.6569 47 37.9999Z" fill="#E6E6E6"/>
<path d="M47 37.9999V23.8069C43.003 30.0939 30.229 38.8109 14.589 40.9999H44C45.657 40.9999 47 39.6569 47 37.9999Z" fill="#FB9144"/>
<path d="M25.029 21.0129C23.339 21.0129 21.967 22.3329 21.967 23.9639C21.967 25.6979 23.279 26.9919 25.029 26.9919C26.737 26.9919 28.083 25.6789 28.083 23.9969C28.084 22.3249 26.747 21.0129 25.029 21.0129Z" fill="#FB9144"/>
<path d="M7.646 21.1211H6V26.8641H7.636C8.507 26.8641 9.135 26.6571 9.686 26.2001C10.34 25.6591 10.729 24.8411 10.729 23.9941C10.728 22.2981 9.462 21.1211 7.646 21.1211ZM8.956 25.4341C8.6 25.7521 8.146 25.8911 7.421 25.8911H7.121V22.0931H7.422C8.147 22.0931 8.583 22.2231 8.957 22.5571C9.342 22.9021 9.574 23.4351 9.574 23.9861C9.573 24.5391 9.342 25.0911 8.956 25.4341Z" fill="#444444"/>
<path d="M12.361 21.1211H11.245V26.8641H12.361V21.1211Z" fill="#444444"/>
<path d="M15.102 23.3219C14.428 23.0749 14.231 22.9099 14.231 22.5999C14.231 22.2389 14.583 21.9649 15.067 21.9649C15.402 21.9649 15.679 22.0989 15.973 22.4269L16.556 21.6629C16.075 21.2389 15.498 21.0249 14.87 21.0249C13.854 21.0249 13.079 21.7319 13.079 22.6669C13.079 23.4609 13.439 23.8639 14.49 24.2459C14.929 24.3989 15.152 24.5029 15.266 24.5739C15.49 24.7189 15.601 24.9259 15.601 25.1659C15.601 25.6329 15.231 25.9769 14.73 25.9769C14.197 25.9769 13.766 25.7099 13.508 25.2089L12.786 25.9089C13.302 26.6649 13.921 27.0029 14.774 27.0029C15.937 27.0029 16.756 26.2249 16.756 25.1159C16.757 24.2019 16.377 23.7879 15.102 23.3219Z" fill="#444444"/>
<path d="M17.108 23.994C17.108 25.683 18.434 26.992 20.14 26.992C20.621 26.992 21.034 26.897 21.542 26.657V25.337C21.093 25.788 20.699 25.966 20.189 25.966C19.061 25.966 18.262 25.15 18.262 23.986C18.262 22.886 19.087 22.014 20.139 22.014C20.67 22.014 21.076 22.202 21.541 22.66V21.342C21.05 21.094 20.647 20.991 20.162 20.991C18.467 20.991 17.108 22.325 17.108 23.994Z" fill="#444444"/>
<path d="M30.617 24.9771L29.086 21.1211H27.864L30.299 27.0091H30.9L33.382 21.1211H32.17L30.617 24.9771Z" fill="#444444"/>
<path d="M33.89 26.8641H37.066V25.8911H35.011V24.3411H36.988V23.3681H35.011V22.0931H37.066V21.1211H33.89V26.8641Z" fill="#444444"/>
<path d="M41.5 22.8151C41.5 21.7391 40.762 21.1201 39.469 21.1201H37.805V26.8631H38.928V24.5541H39.074L40.621 26.8631H42L40.193 24.4421C41.037 24.2711 41.5 23.6941 41.5 22.8151ZM39.254 23.7621H38.929V22.0251H39.272C39.972 22.0251 40.347 22.3191 40.347 22.8781C40.347 23.4521 39.972 23.7621 39.254 23.7621Z" fill="#444444"/>
</svg>
