<svg width="33" height="32" viewBox="0 0 33 32" fill="none" xmlns="http://www.w3.org/2000/svg">
<path d="M16.8605 7.87576C16.794 7.83736 16.7185 7.81715 16.6418 7.81715C16.565 7.81715 16.4895 7.83736 16.423 7.87576L9.75138 11.7276C9.68487 11.766 9.62964 11.8213 9.59124 11.8878C9.55284 11.9543 9.53263 12.0297 9.53263 12.1065V19.8103C9.53263 19.8871 9.55284 19.9625 9.59124 20.029C9.62964 20.0955 9.68487 20.1507 9.75138 20.1891L16.423 24.0411C16.4895 24.0795 16.565 24.0997 16.6418 24.0997C16.7185 24.0997 16.794 24.0795 16.8605 24.0411L23.5322 20.1891C23.5987 20.1507 23.6539 20.0955 23.6923 20.029C23.7307 19.9625 23.7509 19.8871 23.7509 19.8103V12.1065C23.7509 12.0297 23.7307 11.9543 23.6923 11.8878C23.6539 11.8213 23.5987 11.766 23.5322 11.7276L16.8605 7.87576ZM16.6418 8.75982L22.4384 12.1065L16.6418 15.4532L10.8451 12.1065L16.6418 8.75982ZM10.4076 12.8643L16.2043 16.2109V22.9047L10.4076 19.558V12.8643ZM17.0793 22.9044V16.2106L22.8759 12.8639V19.5577L17.0793 22.9044ZM2.03944 17.7325C2.04623 17.7896 2.04171 17.8475 2.02612 17.9028C2.01054 17.9581 1.9842 18.0099 1.94861 18.055C1.91302 18.1002 1.86889 18.1379 1.81872 18.166C1.76855 18.194 1.71335 18.212 1.65625 18.2187C1.63899 18.2208 1.62163 18.2218 1.60425 18.2218C1.49722 18.2217 1.39395 18.1823 1.314 18.1111C1.23404 18.04 1.18294 17.942 1.17038 17.8357C1.09848 17.2264 1.06246 16.6134 1.0625 15.9999C1.06313 13.2811 1.78162 10.6106 3.14534 8.25851C4.50905 5.9064 6.46964 3.95606 8.82886 2.60469C11.1881 1.25332 13.8623 0.548829 16.5811 0.56245C19.2999 0.57607 21.9669 1.30732 24.3125 2.68226C26.2134 3.80166 27.854 5.31319 29.125 7.1162L29.0898 2.07588C29.0894 2.01843 29.1003 1.96146 29.1219 1.90822C29.1435 1.85499 29.1754 1.80653 29.2157 1.76561C29.2972 1.68298 29.4082 1.63609 29.5242 1.63526C29.6402 1.63443 29.7518 1.67973 29.8345 1.76119C29.9171 1.84265 29.964 1.9536 29.9648 2.06963L30.0106 8.6357C30.011 8.69341 30 8.75063 29.9782 8.80406C29.9564 8.8575 29.9242 8.90609 29.8836 8.94704C29.8429 8.98799 29.7945 9.02049 29.7413 9.04267C29.688 9.06484 29.6308 9.07626 29.5731 9.07626C29.5689 9.07626 29.5647 9.07626 29.5606 9.07626L23.461 8.90032C23.4033 8.89904 23.3465 8.88637 23.2937 8.86303C23.241 8.83969 23.1933 8.80615 23.1536 8.76434C23.1139 8.72252 23.0828 8.67326 23.0621 8.61939C23.0415 8.56551 23.0317 8.50809 23.0334 8.45043C23.035 8.39276 23.0481 8.336 23.0717 8.28339C23.0954 8.23078 23.1293 8.18338 23.1713 8.1439C23.2134 8.10443 23.2629 8.07366 23.3169 8.05337C23.3709 8.03309 23.4283 8.02368 23.486 8.0257L28.786 8.17857C27.4661 6.11631 25.6496 4.41843 23.503 3.24063C21.3564 2.06284 18.9485 1.44282 16.5 1.43745C8.47019 1.43745 1.9375 7.97013 1.9375 15.9999C1.93753 16.579 1.97157 17.1575 2.03944 17.7325ZM31.9375 15.9999C31.9366 18.6513 31.253 21.2579 29.9526 23.5685C28.6523 25.8791 26.7789 27.816 24.5129 29.1926C22.2469 30.5693 19.6646 31.3394 17.0147 31.4287C14.3648 31.518 11.7366 30.9235 9.38306 29.7025C7.59236 28.7667 6.00086 27.4914 4.69731 25.9477L4.50425 30.4437C4.49942 30.5563 4.4513 30.6627 4.36994 30.7407C4.28857 30.8188 4.18023 30.8624 4.0675 30.8624C4.06125 30.8624 4.055 30.8624 4.04837 30.862C3.93245 30.857 3.82325 30.8062 3.7448 30.7207C3.66636 30.6352 3.62508 30.5221 3.63006 30.4061L3.87381 24.7256C3.87837 24.6124 3.92673 24.5055 4.00869 24.4273C4.09064 24.3492 4.19977 24.306 4.313 24.3068L10.5938 24.3374C10.6512 24.3376 10.7081 24.349 10.7611 24.3711C10.8141 24.3933 10.8623 24.4256 10.9028 24.4663C10.9433 24.507 10.9754 24.5553 10.9973 24.6085C11.0192 24.6616 11.0304 24.7185 11.0302 24.776C11.0301 24.8334 11.0186 24.8903 10.9965 24.9433C10.9744 24.9964 10.9421 25.0445 10.9013 25.085C10.8606 25.1256 10.8123 25.1577 10.7592 25.1795C10.7061 25.2014 10.6491 25.2126 10.5917 25.2124H10.5896L5.20113 25.1864C6.56936 26.8627 8.29257 28.2144 10.2465 29.1441C12.2004 30.0737 14.3362 30.5582 16.5 30.5624C24.5298 30.5624 31.0625 24.0298 31.0625 15.9999C31.0625 15.8839 31.1086 15.7726 31.1906 15.6906C31.2727 15.6085 31.384 15.5624 31.5 15.5624C31.616 15.5624 31.7273 15.6085 31.8094 15.6906C31.8914 15.7726 31.9375 15.8839 31.9375 15.9999Z" fill="#165A0B"/>
</svg>
