<?xml version="1.0" encoding="UTF-8"?> <svg xmlns="http://www.w3.org/2000/svg" width="193" height="46" viewBox="0 0 193 46" fill="none"><g clip-path="url(#clip0_2332_944)"><path fill-rule="evenodd" clip-rule="evenodd" d="M9.44836 9.3151C14.6336 13.8404 18.5013 20.035 20.5677 26.4976C21.6556 25.3574 22.8601 24.3672 24.174 23.4951C24.7003 23.1519 25.2619 22.8123 25.8271 22.5085C23.1214 13.9512 15.4601 5.55117 2.72308 0C2.30982 8.74318 -1.40957 15.7384 0.582581 24.596C2.57473 33.4536 8.39577 40.9064 16.3997 44.8955C15.3471 41.9287 15.0469 38.776 15.6473 35.6555C16.0606 33.4893 16.8871 31.5126 18.0139 29.7254C17.1485 22.4263 14.2203 15.0879 9.44836 9.31152V9.3151Z" fill="#165A0B"></path><path fill-rule="evenodd" clip-rule="evenodd" d="M35.4807 25.1287C26.7668 27.9811 19.4764 36.1524 18.7629 44.2128C14.5914 32.921 23.9093 21.1753 42.2413 21.0251C40.175 26.7264 40.7013 32.2025 37.0561 37.3713C33.4109 42.5042 27.664 45.6569 21.4262 46C21.9525 37.8252 27.551 29.2715 35.4772 25.1287H35.4807Z" fill="#165A0B"></path></g><path d="M54.714 26.351C54.714 28.0389 54.897 29.7729 55.2631 31.5528C55.6292 33.3021 56.2089 34.9287 57.0021 36.4324C57.7953 37.9362 58.8173 39.1484 60.0681 40.0691C61.3189 40.9591 62.829 41.4041 64.5985 41.4041C65.2696 41.4041 66.0018 41.3274 66.795 41.1739C67.6187 40.9898 68.3204 40.6982 68.9 40.2993C69.5102 39.8696 69.8153 39.3019 69.8153 38.596V36.2023C69.8153 34.453 69.5712 33.2101 69.0831 32.4735C68.595 31.737 67.9696 31.292 67.2069 31.1385C66.4747 30.9851 65.712 30.9084 64.9188 30.9084H64.5985C64.1409 30.9084 63.912 30.6782 63.912 30.2179V28.8368C63.912 28.3765 64.1409 28.1463 64.5985 28.1463H79.0133C79.4709 28.1463 79.6997 28.3765 79.6997 28.8368V30.2179C79.6997 30.6782 79.4709 30.9084 79.0133 30.9084H78.6472C77.854 30.9084 77.4574 31.4147 77.4574 32.4275V37.3991C76.4202 39.8543 74.6965 41.8798 72.2864 43.4756C69.8763 45.0715 66.9323 45.8694 63.4544 45.8694C60.8918 45.8694 58.5885 45.4244 56.5445 44.5344C54.5004 43.6444 52.7615 42.4015 51.3277 40.8056C49.8938 39.2098 48.7955 37.3531 48.0328 35.2355C47.2701 33.118 46.8888 30.8316 46.8888 28.3765C46.8888 26.842 47.0566 25.2308 47.3922 23.5429C47.7278 21.855 48.2769 20.2285 49.0396 18.6633C49.8328 17.0675 50.87 15.6405 52.1514 14.3822C53.4632 13.0932 55.0648 12.0805 56.9563 11.344C58.8783 10.5767 61.1511 10.1931 63.7748 10.1931C65.9713 10.1931 67.8628 10.4693 69.4492 11.0217C71.0661 11.5741 72.4084 12.28 73.4762 13.1393C74.5439 13.9986 75.3829 14.8886 75.9931 15.8092C76.6337 16.7299 77.0913 17.5892 77.3659 18.3871C77.6405 19.1544 77.7778 19.7375 77.7778 20.1364C77.7778 20.4126 77.7015 20.6121 77.5489 20.7349C77.4269 20.8576 77.2439 20.965 76.9998 21.0571L71.4169 23.0366C71.2949 23.0673 71.1576 23.1133 71.0051 23.1747C70.883 23.2054 70.7457 23.2207 70.5932 23.2207C70.4712 23.2207 70.3491 23.2054 70.2271 23.1747C70.1051 23.1133 70.0441 22.9752 70.0441 22.7604C70.0441 22.6069 70.0593 22.4228 70.0898 22.208C70.1203 21.9624 70.1356 21.6402 70.1356 21.2412C70.1356 19.1237 69.5712 17.3591 68.4424 15.9474C67.3442 14.5356 65.6662 13.8298 63.4087 13.8298C61.6697 13.8298 60.1444 14.3669 58.8325 15.441C57.5207 16.4844 56.4987 17.9422 55.7665 19.8142C55.0648 21.6862 54.714 23.8652 54.714 26.351Z" fill="#165A0B"></path><path d="M90.2917 27.0875C91.1154 25.3076 92.2595 23.9572 93.7238 23.0366C95.1882 22.1159 96.7288 21.6556 98.3457 21.6556C99.7796 21.6556 101 22.0545 102.007 22.8524C103.013 23.6504 103.517 24.8319 103.517 26.397C103.517 27.0722 103.456 27.6706 103.334 28.1924C103.212 28.7141 102.876 29.0977 102.327 29.3432L98.0254 31.0925C97.8424 31.1539 97.7051 31.1846 97.6135 31.1846C97.339 31.1846 97.2017 31.0465 97.2017 30.7703C97.2017 30.6782 97.2322 30.5401 97.2932 30.356C97.4763 29.9263 97.583 29.512 97.6135 29.113C97.6746 28.7141 97.7051 28.3612 97.7051 28.0543C97.7051 27.2257 97.4915 26.6272 97.0644 26.2589C96.6678 25.86 96.1644 25.6605 95.5543 25.6605C94.8526 25.6605 94.1967 25.8753 93.5865 26.305C92.9764 26.7346 92.4425 27.2563 91.9849 27.8701C91.5273 28.4839 91.1917 29.0823 90.9781 29.6654V38.1357C90.9781 39.3632 91.2527 40.4067 91.8018 41.266C92.351 42.0946 93.1899 42.5089 94.3187 42.5089H94.4102C94.8679 42.5089 95.0967 42.7391 95.0967 43.1994V44.5804C95.0967 45.0408 94.8679 45.2709 94.4102 45.2709H81.0937C80.6361 45.2709 80.4072 45.0408 80.4072 44.5804V43.1994C80.4072 42.7391 80.6361 42.5089 81.0937 42.5089H81.1852C82.314 42.5089 83.1529 42.0946 83.7021 41.266C84.2512 40.4067 84.5258 39.3632 84.5258 38.1357V32.3354C84.5258 31.5068 84.4648 30.7089 84.3427 29.9417C84.2512 29.1744 84.0224 28.5299 83.6563 28.0082C83.2902 27.4558 82.6801 27.1336 81.8259 27.0415C81.4598 27.0108 81.2767 26.8113 81.2767 26.4431V24.8779C81.2767 24.571 81.5055 24.3716 81.9631 24.2795C84.1292 23.9419 86.0206 23.4048 87.6376 22.6683C89.285 21.9318 90.3985 21.3487 90.9781 20.919C91.0697 20.8576 91.1459 20.8269 91.2069 20.8269H91.2985C91.3595 20.8269 91.39 20.8576 91.39 20.919C91.39 20.9497 91.3442 21.1799 91.2527 21.6095C91.1917 22.0392 91.1002 22.5916 90.9781 23.2667C90.8866 23.9112 90.7646 24.5864 90.612 25.2922C90.49 25.9674 90.3832 26.5658 90.2917 27.0875Z" fill="#165A0B"></path><path d="M110.41 37.0309C110.928 38.3198 111.752 39.4707 112.881 40.4834C114.04 41.4962 115.504 42.0025 117.274 42.0025C118.25 42.0025 119.272 41.7263 120.34 41.1739C121.408 40.6215 122.338 39.7622 123.131 38.596C123.223 38.4426 123.345 38.3658 123.497 38.3658C123.65 38.3658 123.802 38.4119 123.955 38.504C124.138 38.596 124.596 38.8569 125.328 39.2865C125.45 39.3786 125.511 39.5014 125.511 39.6548C125.511 39.8696 125.419 40.1305 125.236 40.4374C124.382 42.0332 123.223 43.3375 121.758 44.3503C120.294 45.363 118.387 45.8694 116.038 45.8694C113.506 45.8694 111.325 45.3016 109.494 44.1661C107.664 43.0306 106.245 41.5268 105.239 39.6548C104.262 37.7828 103.774 35.7419 103.774 33.5323C103.774 31.4147 104.079 29.6041 104.689 28.1003C105.33 26.5658 106.169 25.3383 107.206 24.4176C108.244 23.4662 109.403 22.7757 110.684 22.3461C111.996 21.8857 113.323 21.6556 114.665 21.6556C116.191 21.6556 117.533 21.9624 118.692 22.5762C119.852 23.1593 120.828 23.9112 121.621 24.8319C122.445 25.7526 123.055 26.7346 123.452 27.7781C123.879 28.7908 124.092 29.7422 124.092 30.6322C124.092 30.8777 123.955 31.0618 123.68 31.1846L110.41 37.0309ZM117.228 30.448C117.228 28.9749 116.877 27.7627 116.176 26.8113C115.474 25.86 114.589 25.3843 113.521 25.3843C112.271 25.3843 111.279 25.8907 110.547 26.9034C109.815 27.8855 109.449 29.1284 109.449 30.6322C109.449 31.0925 109.464 31.6602 109.494 32.3354C109.555 33.0106 109.677 33.6244 109.86 34.1768L117.228 30.448Z" fill="#165A0B"></path><path d="M132.152 37.0309C132.67 38.3198 133.494 39.4707 134.623 40.4834C135.782 41.4962 137.246 42.0025 139.016 42.0025C139.992 42.0025 141.014 41.7263 142.082 41.1739C143.15 40.6215 144.08 39.7622 144.873 38.596C144.965 38.4426 145.087 38.3658 145.239 38.3658C145.392 38.3658 145.544 38.4119 145.697 38.504C145.88 38.596 146.338 38.8569 147.07 39.2865C147.192 39.3786 147.253 39.5014 147.253 39.6548C147.253 39.8696 147.161 40.1305 146.978 40.4374C146.124 42.0332 144.965 43.3375 143.5 44.3503C142.036 45.363 140.129 45.8694 137.78 45.8694C135.248 45.8694 133.067 45.3016 131.236 44.1661C129.406 43.0306 127.987 41.5268 126.981 39.6548C126.004 37.7828 125.516 35.7419 125.516 33.5323C125.516 31.4147 125.821 29.6041 126.431 28.1003C127.072 26.5658 127.911 25.3383 128.948 24.4176C129.986 23.4662 131.145 22.7757 132.426 22.3461C133.738 21.8857 135.065 21.6556 136.407 21.6556C137.933 21.6556 139.275 21.9624 140.434 22.5762C141.594 23.1593 142.57 23.9112 143.363 24.8319C144.187 25.7526 144.797 26.7346 145.194 27.7781C145.621 28.7908 145.834 29.7422 145.834 30.6322C145.834 30.8777 145.697 31.0618 145.422 31.1846L132.152 37.0309ZM138.97 30.448C138.97 28.9749 138.619 27.7627 137.918 26.8113C137.216 25.86 136.331 25.3843 135.263 25.3843C134.013 25.3843 133.021 25.8907 132.289 26.9034C131.557 27.8855 131.191 29.1284 131.191 30.6322C131.191 31.0925 131.206 31.6602 131.236 32.3354C131.297 33.0106 131.419 33.6244 131.602 34.1768L138.97 30.448Z" fill="#165A0B"></path><path d="M173.275 30.2639V38.1357C173.275 39.8236 173.534 40.9744 174.053 41.5882C174.602 42.202 175.319 42.5089 176.204 42.5089H176.57C177.027 42.5089 177.256 42.7391 177.256 43.1994V44.5804C177.256 45.0408 177.027 45.2709 176.57 45.2709H164.397C163.94 45.2709 163.711 45.0408 163.711 44.5804V43.1994C163.711 42.7391 163.94 42.5089 164.397 42.5089H164.718C165.358 42.5089 165.877 42.202 166.274 41.5882C166.67 40.9744 166.868 39.8236 166.868 38.1357V30.2639C166.868 28.7908 166.64 27.6706 166.182 26.9034C165.724 26.1055 164.855 25.7065 163.574 25.7065C162.811 25.7065 162.048 25.906 161.286 26.305C160.523 26.6732 159.852 27.1643 159.272 27.7781C158.692 28.3612 158.265 28.9903 157.991 29.6654V38.1357C157.991 39.3632 158.25 40.4067 158.769 41.266C159.318 42.0946 160.035 42.5089 160.919 42.5089H161.011C161.469 42.5089 161.697 42.7391 161.697 43.1994V44.5804C161.697 45.0408 161.469 45.2709 161.011 45.2709H148.152C147.694 45.2709 147.466 45.0408 147.466 44.5804V43.1994C147.466 42.7391 147.694 42.5089 148.152 42.5089H148.244C149.372 42.5089 150.211 42.0946 150.76 41.266C151.31 40.4067 151.584 39.3632 151.584 38.1357V32.3354C151.584 31.5068 151.523 30.7089 151.401 29.9417C151.31 29.1744 151.066 28.5299 150.669 28.0082C150.303 27.4558 149.693 27.1336 148.838 27.0415C148.503 27.0108 148.335 26.8113 148.335 26.4431V24.8779C148.335 24.571 148.549 24.3716 148.976 24.2795C151.172 23.9419 153.049 23.4202 154.604 22.7143C156.191 22.0085 157.289 21.4407 157.899 21.0111C158.052 20.8883 158.174 20.8269 158.265 20.8269H158.311C158.372 20.8269 158.403 20.8576 158.403 20.919C158.403 20.9804 158.387 21.1031 158.357 21.2873L157.579 26.9494C158.006 26.2436 158.57 25.4917 159.272 24.6938C159.974 23.8652 160.843 23.1593 161.88 22.5762C162.918 21.9624 164.123 21.6556 165.496 21.6556C167.143 21.6556 168.485 21.9011 169.523 22.3921C170.56 22.8831 171.338 23.5429 171.856 24.3715C172.406 25.2002 172.772 26.1208 172.955 27.1336C173.168 28.1463 173.275 29.1898 173.275 30.2639Z" fill="#165A0B"></path><path d="M191.965 42.5089C192.423 42.5089 192.652 42.7391 192.652 43.1994V44.5804C192.652 45.0408 192.392 45.2709 191.874 45.2709H178.923C178.405 45.2709 178.145 45.0408 178.145 44.5804V43.1994C178.145 42.7391 178.374 42.5089 178.832 42.5089H178.923C180.052 42.5089 180.876 42.0946 181.394 41.266C181.944 40.4067 182.218 39.3632 182.218 38.1357V33.2561C182.218 32.5502 182.157 31.8444 182.035 31.1385C181.944 30.4327 181.715 29.8189 181.349 29.2972C180.983 28.7755 180.372 28.4686 179.518 28.3765C179.152 28.3458 178.969 28.1463 178.969 27.7781V26.2129C178.969 26.0288 179.03 25.906 179.152 25.8446C179.274 25.7526 179.442 25.6758 179.656 25.6145C182.066 24.8165 183.911 24.0033 185.193 23.1747C186.505 22.3154 187.465 21.5635 188.076 20.919C188.137 20.8576 188.198 20.8269 188.259 20.8269H188.396C188.457 20.8269 188.488 20.8576 188.488 20.919V38.0896C188.488 39.3172 188.762 40.3607 189.311 41.2199C189.86 42.0793 190.699 42.5089 191.828 42.5089H191.965ZM185.421 11.2059C186.215 11.2059 186.993 11.5895 187.755 12.3567C188.518 13.1239 188.899 13.8912 188.899 14.6584C188.899 15.4256 188.518 16.1929 187.755 16.9601C186.993 17.7273 186.215 18.1109 185.421 18.1109C184.689 18.1109 183.927 17.7273 183.133 16.9601C182.371 16.2236 181.989 15.4563 181.989 14.6584C181.989 13.8912 182.371 13.1239 183.133 12.3567C183.896 11.5895 184.659 11.2059 185.421 11.2059Z" fill="#165A0B"></path><defs><clipPath id="clip0_2332_944"><rect width="42.2449" height="46" fill="white"></rect></clipPath></defs></svg> 