<svg width="48" height="48" viewBox="0 0 48 48" fill="none" xmlns="http://www.w3.org/2000/svg">
<path d="M44 7H4C2.34315 7 1 8.34315 1 10V38C1 39.6569 2.34315 41 4 41H44C45.6569 41 47 39.6569 47 38V10C47 8.34315 45.6569 7 44 7Z" fill="#243747"/>
<path d="M19 32C23.4183 32 27 28.4183 27 24C27 19.5817 23.4183 16 19 16C14.5817 16 11 19.5817 11 24C11 28.4183 14.5817 32 19 32Z" fill="#E61C24"/>
<path d="M28.934 32C33.3523 32 36.934 28.4183 36.934 24C36.934 19.5817 33.3523 16 28.934 16C24.5157 16 20.934 19.5817 20.934 24C20.934 28.4183 24.5157 32 28.934 32Z" fill="#F99F1B"/>
<path d="M23.967 17.7361C23.0215 18.4836 22.2574 19.4354 21.7322 20.5203C21.2069 21.6051 20.934 22.7948 20.934 24.0001C20.934 25.2054 21.2069 26.3951 21.7322 27.4799C22.2574 28.5647 23.0215 29.5166 23.967 30.2641C24.9125 29.5166 25.6766 28.5647 26.2018 27.4799C26.7271 26.3951 27 25.2054 27 24.0001C27 22.7948 26.7271 21.6051 26.2018 20.5203C25.6766 19.4354 24.9125 18.4836 23.967 17.7361Z" fill="#F26622"/>
</svg>
