<svg width="48" height="48" viewBox="0 0 48 48" fill="none" xmlns="http://www.w3.org/2000/svg">
<path d="M44 7H4C2.343 7 1 8.343 1 10V38C1 39.657 2.343 41 4 41H44C45.657 41 47 39.657 47 38V10C47 8.343 45.657 7 44 7Z" fill="white"/>
<path d="M30.292 19.2029H27.492C27.301 19.2029 27.138 19.3419 27.108 19.5309L25.976 26.7109C25.954 26.8529 26.063 26.9809 26.207 26.9809H27.644C27.778 26.9809 27.892 26.8829 27.913 26.7509L28.234 24.7149C28.264 24.5259 28.427 24.3869 28.618 24.3869H29.504C31.348 24.3869 32.413 23.4939 32.691 21.7249C32.816 20.9509 32.696 20.3429 32.334 19.9179C31.935 19.4509 31.229 19.2029 30.292 19.2029ZM30.615 21.8259C30.462 22.8309 29.694 22.8309 28.952 22.8309H28.53L28.826 20.9539C28.844 20.8409 28.942 20.7569 29.057 20.7569C29.672 20.7569 30.212 20.7319 30.48 21.0449C30.627 21.2179 30.671 21.4729 30.615 21.8259Z" fill="#009EE3"/>
<path d="M10.32 19.2029H7.51999C7.32899 19.2029 7.16599 19.3419 7.13599 19.5309L6.00399 26.7109C5.98199 26.8529 6.09099 26.9809 6.23499 26.9809H7.57199C7.76299 26.9809 7.92599 26.8419 7.95599 26.6529L8.26199 24.7159C8.29199 24.5269 8.45499 24.3879 8.64599 24.3879H9.53199C11.376 24.3879 12.441 23.4949 12.719 21.7259C12.844 20.9519 12.724 20.3439 12.362 19.9189C11.962 19.4509 11.257 19.2029 10.32 19.2029ZM10.643 21.8259C10.49 22.8309 9.72199 22.8309 8.97999 22.8309H8.55699L8.85299 20.9539C8.87099 20.8409 8.96899 20.7569 9.08399 20.7569H9.27799C9.78299 20.7569 10.261 20.7569 10.507 21.0449C10.654 21.2179 10.699 21.4729 10.643 21.8259Z" fill="#113984"/>
<path d="M18.69 21.794H17.349C17.234 21.794 17.136 21.878 17.118 21.991L17.059 22.366C16.929 22.177 16.67 21.668 15.381 21.668C13.9 21.668 12.634 22.791 12.388 24.365C12.26 25.15 12.442 25.901 12.887 26.425C13.296 26.906 13.88 27.107 14.576 27.107C15.77 27.107 16.432 26.34 16.432 26.34L16.372 26.713C16.35 26.855 16.459 26.983 16.603 26.983H17.811C18.002 26.983 18.165 26.844 18.195 26.655L18.92 22.065C18.942 21.922 18.833 21.794 18.69 21.794ZM16.821 24.404C16.692 25.17 16.083 25.684 15.308 25.684C14.919 25.684 14.608 25.559 14.408 25.322C14.21 25.087 14.135 24.753 14.198 24.38C14.319 23.621 14.937 23.09 15.701 23.09C16.082 23.09 16.391 23.216 16.595 23.455C16.799 23.696 16.88 24.033 16.821 24.404Z" fill="#113984"/>
<path d="M38.662 21.794H37.321C37.206 21.794 37.108 21.878 37.09 21.991L37.031 22.366C36.901 22.177 36.642 21.668 35.353 21.668C33.872 21.668 32.606 22.791 32.36 24.365C32.232 25.15 32.414 25.901 32.859 26.425C33.268 26.906 33.852 27.107 34.548 27.107C35.742 27.107 36.404 26.34 36.404 26.34L36.344 26.713C36.322 26.855 36.431 26.983 36.575 26.983H37.783C37.974 26.983 38.137 26.844 38.167 26.655L38.892 22.065C38.915 21.922 38.805 21.794 38.662 21.794ZM36.793 24.404C36.663 25.17 36.055 25.684 35.28 25.684C34.891 25.684 34.58 25.559 34.38 25.322C34.182 25.087 34.107 24.753 34.17 24.38C34.291 23.621 34.909 23.09 35.673 23.09C36.054 23.09 36.363 23.216 36.567 23.455C36.771 23.696 36.852 24.033 36.793 24.404Z" fill="#009EE3"/>
<path d="M25.831 21.7939H24.483C24.354 21.7939 24.234 21.8579 24.161 21.9649L22.302 24.7029L21.514 22.0719C21.465 21.9069 21.313 21.7939 21.141 21.7939H19.816C19.656 21.7939 19.543 21.9509 19.595 22.1029L21.079 26.4589L19.683 28.4289C19.573 28.5839 19.684 28.7969 19.873 28.7969H21.219C21.347 28.7969 21.466 28.7339 21.539 28.6299L26.021 22.1609C26.13 22.0049 26.019 21.7939 25.831 21.7939Z" fill="#113984"/>
<path d="M40.242 19.4011L39.093 26.7131C39.071 26.8551 39.18 26.9831 39.324 26.9831H40.48C40.671 26.9831 40.834 26.8441 40.864 26.6551L41.997 19.4751C42.019 19.3331 41.91 19.2051 41.766 19.2051H40.472C40.358 19.2031 40.26 19.2871 40.242 19.4011Z" fill="#009EE3"/>
</svg>
