<svg width="33" height="32" viewBox="0 0 33 32" fill="none" xmlns="http://www.w3.org/2000/svg">
<path d="M16.5465 19.2761C15.8973 19.2761 15.2635 19.1833 14.6452 18.9824C13.8414 18.7196 13.1149 18.3177 12.4811 17.7767C11.8782 17.2511 11.3836 16.6173 10.9971 15.9062C10.6261 15.1797 10.4097 14.4223 10.3324 13.6185C10.2552 12.7837 10.3479 11.9645 10.6107 11.1607C10.8735 10.3568 11.2754 9.63031 11.8164 8.99654C12.342 8.39368 12.9758 7.89902 13.6868 7.51257C14.4133 7.14158 15.1708 6.92517 15.9746 6.84788C16.8093 6.77059 17.6286 6.86334 18.4324 7.12612C18.7107 7.21887 18.8807 7.52803 18.7879 7.80628C18.6952 8.08452 18.386 8.25456 18.1078 8.16181C17.4431 7.9454 16.7629 7.86811 16.0828 7.92994C15.4181 7.99177 14.7843 8.17727 14.1815 8.48643C13.5786 8.79558 13.0685 9.21295 12.6357 9.7076C12.1874 10.2332 11.8473 10.836 11.6464 11.4853C11.43 12.15 11.3527 12.8301 11.4145 13.5103C11.4763 14.175 11.6618 14.8087 11.971 15.4116C12.2801 16.0145 12.682 16.5246 13.1922 16.9574C13.7177 17.4057 14.3206 17.7457 14.9698 17.9467C15.6345 18.1631 16.3147 18.2404 16.9948 18.1786C17.6595 18.1167 18.2933 17.9312 18.8961 17.6221C19.499 17.3129 20.0091 16.8956 20.4419 16.4009C20.8902 15.8753 21.2303 15.2725 21.4313 14.6232C21.6477 13.9585 21.725 13.2784 21.6631 12.5982C21.6322 12.3045 21.8486 12.0418 22.1578 12.0108C22.4515 11.9799 22.7143 12.1963 22.7452 12.5055C22.8225 13.3402 22.7297 14.1595 22.4669 14.9633C22.2042 15.7671 21.8022 16.4936 21.2612 17.1274C20.7356 17.7303 20.1019 18.2404 19.3908 18.6114C18.6643 18.9824 17.8914 19.1988 17.103 19.2761C16.9175 19.2606 16.732 19.2761 16.5465 19.2761Z" fill="#165A0B"/>
<path d="M16.5466 26.1085C15.4181 26.1085 14.537 25.2119 13.7796 24.4236C13.2849 23.9135 12.8058 23.4188 12.342 23.2333C11.8474 23.0324 11.1054 23.0324 10.3943 23.0324C9.26588 23.0478 8.09107 23.0478 7.31818 22.2904C6.54528 21.5175 6.56074 20.3581 6.57619 19.2142C6.57619 18.5032 6.59165 17.7612 6.37524 17.2665C6.18975 16.8028 5.69509 16.3236 5.18498 15.8289C4.39662 15.0561 3.50006 14.1904 3.50006 13.0465C3.50006 11.9181 4.39662 11.037 5.18498 10.2795C5.69509 9.78489 6.18975 9.30569 6.37524 8.84195C6.57619 8.3473 6.57619 7.60531 6.57619 6.89425C6.56074 5.76582 6.56074 4.59101 7.31818 3.81812C8.09107 3.04522 9.25042 3.06068 10.3943 3.07613C11.1054 3.07613 11.8474 3.09159 12.342 2.87518C12.8058 2.68968 13.2849 2.19503 13.7796 1.68492C14.5525 0.896562 15.4181 0 16.562 0C17.6905 0 18.5716 0.896562 19.329 1.68492C19.8237 2.19503 20.3029 2.68968 20.7666 2.87518C21.2613 3.07613 22.0032 3.07613 22.7143 3.07613C23.8427 3.06068 25.0175 3.06068 25.7904 3.81812C26.5633 4.59101 26.5479 5.75036 26.5324 6.89425C26.5324 7.60531 26.517 8.3473 26.7334 8.84195C26.9189 9.30569 27.4135 9.78489 27.9236 10.2795C28.712 11.0524 29.6085 11.9181 29.6085 13.062C29.6085 14.1904 28.712 15.0715 27.9236 15.8289C27.4135 16.3236 26.9189 16.8028 26.7334 17.2665C26.5324 17.7612 26.5324 18.5032 26.5324 19.2142C26.5479 20.3427 26.5479 21.5175 25.7904 22.2904C25.0175 23.0633 23.8582 23.0478 22.7143 23.0324C22.0032 23.0324 21.2613 23.0169 20.7666 23.2333C20.3029 23.4188 19.8237 23.9135 19.329 24.4236C18.5561 25.1965 17.675 26.1085 16.5466 26.1085ZM10.7653 21.9348C11.4609 21.9348 12.1565 21.9658 12.7439 22.2131C13.4086 22.4913 13.996 23.0787 14.537 23.6507C15.1863 24.3154 15.8664 25.011 16.5311 25.011C17.2113 25.011 17.876 24.3154 18.5252 23.6507C19.0817 23.0787 19.6536 22.4913 20.3183 22.2131C21.0139 21.9194 21.8641 21.9348 22.6834 21.9348C23.6418 21.9503 24.5383 21.9503 24.9866 21.502C25.4349 21.0537 25.4194 20.1572 25.4194 19.1988C25.4194 18.3795 25.404 17.5293 25.6977 16.8337C25.9759 16.169 26.5633 15.5816 27.1353 15.0406C27.8 14.3914 28.4956 13.7112 28.4956 13.0465C28.4956 12.3664 27.8 11.7017 27.1353 11.0524C26.5633 10.496 25.9759 9.92401 25.6977 9.25932C25.404 8.56371 25.4194 7.71352 25.4194 6.89425C25.4349 5.93585 25.4349 5.03929 24.9866 4.59101C24.5383 4.14273 23.6418 4.15819 22.6834 4.15819C21.8641 4.15819 21.0139 4.17365 20.3183 3.87995C19.6536 3.6017 19.0662 3.0143 18.5252 2.44236C17.876 1.77766 17.2113 1.08206 16.5311 1.08206C15.851 1.08206 15.1863 1.77766 14.537 2.44236C13.9806 3.0143 13.4086 3.6017 12.7439 3.87995C12.0483 4.17365 11.1981 4.15819 10.3789 4.15819C9.42046 4.14273 8.5239 4.14273 8.07562 4.59101C7.62734 5.03929 7.64279 5.93585 7.64279 6.89425C7.64279 7.71352 7.65825 8.56371 7.36455 9.25932C7.08631 9.92401 6.4989 10.5114 5.92696 11.0524C5.26227 11.7017 4.56666 12.3664 4.56666 13.0465C4.56666 13.7267 5.26227 14.3914 5.92696 15.0406C6.4989 15.5971 7.08631 16.169 7.36455 16.8337C7.65825 17.5293 7.64279 18.3795 7.64279 19.1988C7.62734 20.1572 7.62734 21.0537 8.07562 21.502C8.5239 21.9503 9.42046 21.9348 10.3789 21.9348H10.7653Z" fill="#165A0B"/>
<path d="M22.2661 31.998C22.1579 31.998 22.0342 31.9671 21.9415 31.9207L16.6239 29.1074L11.3064 31.9207C11.09 32.0289 10.8272 32.0289 10.6262 31.9052C10.4098 31.7816 10.2862 31.5497 10.2862 31.3024V25.3047C10.2862 25.011 10.5335 24.7637 10.8272 24.7637C11.1209 24.7637 11.3682 25.011 11.3682 25.3047V30.6532L16.6239 27.8707L21.8796 30.6532V25.3047C21.8796 25.011 22.127 24.7637 22.4207 24.7637C22.7144 24.7637 22.9617 25.011 22.9617 25.3047V31.3024C22.9617 31.5497 22.838 31.7661 22.6216 31.9052C22.5134 31.9671 22.3897 31.998 22.2661 31.998Z" fill="#165A0B"/>
<path d="M16.4384 15.1953L13.1922 11.9491C12.9758 11.7327 12.9758 11.3926 13.1922 11.1916C13.4087 10.9752 13.7487 10.9752 13.9497 11.1916L16.423 13.6649L22.297 7.80635C22.5134 7.58994 22.8535 7.58994 23.0699 7.80635C23.2863 8.02276 23.2863 8.36284 23.0699 8.56379L16.4384 15.1953Z" fill="#165A0B"/>
</svg>
