<svg width="54" height="44" viewBox="0 0 54 44" fill="none" xmlns="http://www.w3.org/2000/svg">
<path d="M24.2717 33.4529C24.2717 38.4657 19.6504 43.047 13.8731 43.047C4.32682 43.047 0.166656 35.9846 0.166656 26.5572C0.166656 15.7366 11.0734 5.30123 20.9687 0.953137L23.6121 5.21049C15.4589 9.16136 9.36504 14.5181 8.50148 23.4991H11.8744C15.4862 23.4991 19.2384 24.0814 21.7432 26.6772C23.5291 28.5306 24.2717 30.8904 24.2717 33.4529ZM53.8333 33.4529C53.8333 38.4657 49.2121 43.047 43.4348 43.047C33.8885 43.047 29.7283 35.9845 29.7283 26.5572C29.7283 15.7366 40.635 5.30122 50.5304 0.953125L53.1737 5.21048C45.0206 9.16135 38.9267 14.5181 38.0631 23.4991C41.7418 23.4991 44.7937 23.3658 47.5122 24.3386C51.746 25.8535 53.8333 29.1262 53.8333 33.4529Z" fill="#165A0B"/>
</svg>
