<svg width="89" height="16" viewBox="0 0 89 16" fill="none" xmlns="http://www.w3.org/2000/svg">
<path d="M8.5 0L10.7571 4.89337L16.1085 5.52786L12.1521 9.18663L13.2023 14.4721L8.5 11.84L3.79772 14.4721L4.84794 9.18663L0.891548 5.52786L6.2429 4.89337L8.5 0Z" fill="#FB7044"/>
<path d="M26.5 0L28.7571 4.89337L34.1085 5.52786L30.1521 9.18663L31.2023 14.4721L26.5 11.84L21.7977 14.4721L22.8479 9.18663L18.8915 5.52786L24.2429 4.89337L26.5 0Z" fill="#FB7044"/>
<path d="M44.5 0L46.7571 4.89337L52.1085 5.52786L48.1521 9.18663L49.2023 14.4721L44.5 11.84L39.7977 14.4721L40.8479 9.18663L36.8915 5.52786L42.2429 4.89337L44.5 0Z" fill="#FB7044"/>
<path d="M62.5 0L64.7571 4.89337L70.1085 5.52786L66.1521 9.18663L67.2023 14.4721L62.5 11.84L57.7977 14.4721L58.8479 9.18663L54.8915 5.52786L60.2429 4.89337L62.5 0Z" fill="#FB7044"/>
<path d="M80.5 0L82.7571 4.89337L88.1085 5.52786L84.1521 9.18663L85.2023 14.4721L80.5 11.84L75.7977 14.4721L76.8479 9.18663L72.8915 5.52786L78.2429 4.89337L80.5 0Z" fill="#FB7044"/>
</svg>
