<svg width="24" height="24" viewBox="0 0 24 24" fill="none" xmlns="http://www.w3.org/2000/svg">
<path d="M10.4395 16.8742C11.8696 16.8742 13.2588 16.397 14.3871 15.5181L18.6436 19.7753C18.9616 20.0824 19.4682 20.0736 19.7753 19.7556C20.0749 19.4454 20.0749 18.9536 19.7753 18.6434L15.5188 14.3862C17.6994 11.5787 17.1916 7.53486 14.3846 5.35393C11.5776 3.17299 7.53433 3.68085 5.35372 6.48831C3.17311 9.29577 3.6809 13.3397 6.48793 15.5206C7.61802 16.3986 9.00846 16.8749 10.4395 16.8742ZM7.01943 7.01743C8.90831 5.12824 11.9708 5.1282 13.8597 7.01736C15.7486 8.90652 15.7486 11.9695 13.8598 13.8586C11.9709 15.7478 8.90841 15.7479 7.0195 13.8587C7.01947 13.8587 7.01947 13.8587 7.01943 13.8586C5.13056 11.9833 5.11943 8.93149 6.99454 7.04233C7.00283 7.034 7.01111 7.02572 7.01943 7.01743Z" fill="#165A0B"/>
</svg>
