<svg width="33" height="32" viewBox="0 0 33 32" fill="none" xmlns="http://www.w3.org/2000/svg">
<g clip-path="url(#clip0_2332_1007)">
<path d="M28.6175 6.47912L16.5905 0.070512C16.4121 -0.0247149 16.1983 -0.0233785 16.0212 0.0738533L4.32698 6.48246C4.13519 6.58771 4.01624 6.78886 4.01624 7.00771V15.379C4.02326 22.2604 8.10031 28.4859 14.4053 31.2428L16.0285 31.9502C16.1802 32.0163 16.353 32.0167 16.505 31.9508L18.334 31.1609C24.756 28.4639 28.934 22.1782 28.9346 15.2129V7.00771C28.9346 6.78652 28.8127 6.58303 28.6175 6.47912ZM27.7371 15.2129C27.7358 21.6981 23.8448 27.5497 17.8653 30.0593L17.8612 30.0613L16.2684 30.749L14.8845 30.1452C9.01549 27.5791 5.22011 21.7846 5.21343 15.379V7.36222L16.3129 1.27906L27.7371 7.36657V15.2129Z" fill="#165A0B"/>
<path d="M11.8954 14.9908C11.6805 14.7392 11.3026 14.7094 11.051 14.9243C10.7994 15.1388 10.7697 15.517 10.9845 15.7683L14.1474 19.4721C14.3586 19.7194 14.7284 19.7531 14.9804 19.548L22.3466 13.555C22.6032 13.3465 22.642 12.9693 22.4331 12.7127C22.2246 12.4564 21.8474 12.4173 21.5908 12.6261L14.6783 18.2495L11.8954 14.9908Z" fill="#165A0B"/>
</g>
<defs>
<clipPath id="clip0_2332_1007">
<rect width="32" height="32" fill="white" transform="translate(0.5)"/>
</clipPath>
</defs>
</svg>
