<svg width="33" height="32" viewBox="0 0 33 32" fill="none" xmlns="http://www.w3.org/2000/svg">
<g clip-path="url(#clip0_2332_986)">
<path d="M27.974 24.8586C27.4317 24.859 26.9015 24.6986 26.4504 24.3976C25.9994 24.0966 25.6477 23.6686 25.4399 23.1678C25.2321 22.6669 25.1775 22.1156 25.2831 21.5837C25.3886 21.0518 25.6496 20.5632 26.0329 20.1796C26.4162 19.796 26.9046 19.5347 27.4364 19.4288C27.9683 19.3229 28.5196 19.377 29.0206 19.5845C29.5216 19.7919 29.9499 20.1432 30.2512 20.5941C30.5525 21.045 30.7133 21.575 30.7133 22.1173C30.713 22.8439 30.4243 23.5407 29.9107 24.0546C29.3971 24.5686 28.7006 24.8578 27.974 24.8586ZM27.974 20.376C27.6295 20.3756 27.2926 20.4774 27.006 20.6685C26.7194 20.8596 26.4959 21.1314 26.3638 21.4495C26.2317 21.7677 26.1969 22.1179 26.2639 22.4558C26.3308 22.7937 26.4965 23.1042 26.74 23.3479C26.9834 23.5916 27.2937 23.7577 27.6315 23.825C27.9694 23.8924 28.3196 23.858 28.6379 23.7263C28.9562 23.5945 29.2283 23.3714 29.4197 23.085C29.6111 22.7985 29.7133 22.4618 29.7133 22.1173C29.7131 21.6559 29.5299 21.2134 29.2038 20.8869C28.8777 20.5604 28.4354 20.3767 27.974 20.376Z" fill="#165A0B"/>
<path d="M13.528 24.8586C12.9857 24.8592 12.4554 24.6988 12.0043 24.3979C11.5531 24.097 11.2013 23.6691 10.9934 23.1682C10.7855 22.6674 10.7309 22.1161 10.8363 21.5841C10.9418 21.0522 11.2027 20.5635 11.586 20.1798C11.9692 19.7962 12.4577 19.5348 12.9895 19.4288C13.5214 19.3229 14.0727 19.377 14.5738 19.5844C15.0748 19.7918 15.5031 20.1432 15.8045 20.594C16.1058 21.0449 16.2667 21.575 16.2667 22.1173C16.2661 22.8437 15.9775 23.5403 15.4641 24.0542C14.9507 24.5681 14.2544 24.8574 13.528 24.8586ZM13.528 20.376C13.1835 20.3754 12.8466 20.4771 12.5598 20.6681C12.2731 20.8592 12.0495 21.1309 11.9173 21.4491C11.7851 21.7672 11.7502 22.1174 11.8171 22.4554C11.884 22.7934 12.0497 23.1039 12.2931 23.3477C12.5365 23.5915 12.8468 23.7576 13.1846 23.825C13.5225 23.8924 13.8728 23.8581 14.1911 23.7263C14.5094 23.5946 14.7816 23.3714 14.973 23.085C15.1645 22.7986 15.2667 22.4618 15.2667 22.1173C15.2663 21.656 15.0831 21.2137 14.7572 20.8873C14.4313 20.5609 13.9893 20.377 13.528 20.376Z" fill="#165A0B"/>
<path d="M31.5807 22.6173H30.2133C30.0807 22.6173 29.9536 22.5646 29.8598 22.4709C29.766 22.3771 29.7133 22.2499 29.7133 22.1173C29.7133 21.9847 29.766 21.8575 29.8598 21.7637C29.9536 21.67 30.0807 21.6173 30.2133 21.6173H31.4393V18.966C31.439 18.6075 31.3472 18.2551 31.1727 17.942L28.466 13.0893C28.4429 13.0479 28.4091 13.0134 28.3682 12.9894C28.3273 12.9653 28.2808 12.9527 28.2333 12.9526H24.5447V21.6193H25.7353C25.868 21.6193 25.9951 21.672 26.0889 21.7657C26.1827 21.8595 26.2353 21.9867 26.2353 22.1193C26.2353 22.2519 26.1827 22.3791 26.0889 22.4729C25.9951 22.5666 25.868 22.6193 25.7353 22.6193H24.0447C23.9121 22.6193 23.7849 22.5666 23.6911 22.4729C23.5974 22.3791 23.5447 22.2519 23.5447 22.1193V12.4526C23.5447 12.32 23.5974 12.1929 23.6911 12.0991C23.7849 12.0053 23.9121 11.9526 24.0447 11.9526H28.2333C28.4589 11.9525 28.6804 12.0127 28.875 12.1268C29.0695 12.241 29.2301 12.405 29.34 12.602L32.046 17.4553C32.3033 17.9173 32.4384 18.4372 32.4387 18.966V21.7593C32.4383 21.9868 32.3478 22.2048 32.187 22.3656C32.0262 22.5264 31.8081 22.617 31.5807 22.6173Z" fill="#165A0B"/>
<path d="M11.2887 22.6173H6.49466C6.36205 22.6173 6.23487 22.5646 6.14111 22.4709C6.04734 22.3771 5.99466 22.2499 5.99466 22.1173V18.272C5.99466 18.1394 6.04734 18.0122 6.14111 17.9184C6.23487 17.8247 6.36205 17.772 6.49466 17.772C6.62727 17.772 6.75445 17.8247 6.84821 17.9184C6.94198 18.0122 6.99466 18.1394 6.99466 18.272V21.6173H11.2887C11.4213 21.6173 11.5484 21.67 11.6422 21.7638C11.736 21.8575 11.7887 21.9847 11.7887 22.1173C11.7887 22.2499 11.736 22.3771 11.6422 22.4709C11.5484 22.5646 11.4213 22.6173 11.2887 22.6173Z" fill="#165A0B"/>
<path d="M6.49466 16.498C6.36205 16.498 6.23487 16.4453 6.14111 16.3515C6.04734 16.2577 5.99466 16.1306 5.99466 15.998V12.6406C5.99466 12.508 6.04734 12.3808 6.14111 12.2871C6.23487 12.1933 6.36205 12.1406 6.49466 12.1406C6.62727 12.1406 6.75445 12.1933 6.84821 12.2871C6.94198 12.3808 6.99466 12.508 6.99466 12.6406V16C6.99413 16.1322 6.94122 16.2589 6.84751 16.3522C6.7538 16.4456 6.62692 16.498 6.49466 16.498Z" fill="#165A0B"/>
<path d="M24.0447 22.6173H15.7667C15.6341 22.6173 15.5069 22.5646 15.4131 22.4708C15.3193 22.3771 15.2667 22.2499 15.2667 22.1173C15.2667 21.9847 15.3193 21.8575 15.4131 21.7637C15.5069 21.67 15.6341 21.6173 15.7667 21.6173H23.5447V8.53662H6.99466V10.596C6.99466 10.7286 6.94198 10.8557 6.84821 10.9495C6.75445 11.0433 6.62727 11.096 6.49466 11.096C6.36205 11.096 6.23487 11.0433 6.14111 10.9495C6.04734 10.8557 5.99466 10.7286 5.99466 10.596V8.44462C5.99501 8.2038 6.09088 7.97295 6.26123 7.80272C6.43158 7.6325 6.6625 7.5368 6.90333 7.53662H23.6367C23.8774 7.53697 24.1081 7.63275 24.2783 7.80296C24.4485 7.97316 24.5443 8.20391 24.5447 8.44462V22.1173C24.5447 22.2499 24.492 22.3771 24.3982 22.4708C24.3044 22.5646 24.1773 22.6173 24.0447 22.6173Z" fill="#165A0B"/>
<path d="M8.47134 18.772H2.12534C1.99273 18.772 1.86555 18.7193 1.77178 18.6255C1.67801 18.5318 1.62534 18.4046 1.62534 18.272C1.62534 18.1394 1.67801 18.0122 1.77178 17.9184C1.86555 17.8247 1.99273 17.772 2.12534 17.772H8.47134C8.60394 17.772 8.73112 17.8247 8.82489 17.9184C8.91866 18.0122 8.97134 18.1394 8.97134 18.272C8.97134 18.4046 8.91866 18.5318 8.82489 18.6255C8.73112 18.7193 8.60394 18.772 8.47134 18.772Z" fill="#165A0B"/>
<path d="M13.528 16.498H4.67267C4.54006 16.498 4.41288 16.4454 4.31912 16.3516C4.22535 16.2578 4.17267 16.1307 4.17267 15.998C4.17267 15.8654 4.22535 15.7383 4.31912 15.6445C4.41288 15.5507 4.54006 15.498 4.67267 15.498H13.528C13.6606 15.498 13.7878 15.5507 13.8816 15.6445C13.9753 15.7383 14.028 15.8654 14.028 15.998C14.028 16.1307 13.9753 16.2578 13.8816 16.3516C13.7878 16.4454 13.6606 16.498 13.528 16.498Z" fill="#165A0B"/>
<path d="M4.39733 13.858H0.939331C0.806723 13.858 0.679546 13.8054 0.585778 13.7116C0.492009 13.6178 0.439331 13.4906 0.439331 13.358C0.439331 13.2254 0.492009 13.0982 0.585778 13.0045C0.679546 12.9107 0.806723 12.858 0.939331 12.858H4.39733C4.52994 12.858 4.65712 12.9107 4.75088 13.0045C4.84465 13.0982 4.89733 13.2254 4.89733 13.358C4.89733 13.4906 4.84465 13.6178 4.75088 13.7116C4.65712 13.8054 4.52994 13.858 4.39733 13.858Z" fill="#165A0B"/>
<path d="M9.94201 11.0959H3.83801C3.7054 11.0959 3.57823 11.0433 3.48446 10.9495C3.39069 10.8557 3.33801 10.7286 3.33801 10.5959C3.33801 10.4633 3.39069 10.3362 3.48446 10.2424C3.57823 10.1486 3.7054 10.0959 3.83801 10.0959H9.94201C10.0746 10.0959 10.2018 10.1486 10.2956 10.2424C10.3893 10.3362 10.442 10.4633 10.442 10.5959C10.442 10.7286 10.3893 10.8557 10.2956 10.9495C10.2018 11.0433 10.0746 11.0959 9.94201 11.0959Z" fill="#165A0B"/>
</g>
<defs>
<clipPath id="clip0_2332_986">
<rect width="32" height="32" fill="white" transform="translate(0.5)"/>
</clipPath>
</defs>
</svg>
