<svg width="24" height="24" viewBox="0 0 24 24" fill="none" xmlns="http://www.w3.org/2000/svg">
<path d="M12.0858 12.9836C6.22675 12.9836 3 15.7554 3 20.7884C3 21.1815 3.31859 21.5001 3.71167 21.5001H20.4599C20.8529 21.5001 21.1715 21.1815 21.1715 20.7884C21.1716 15.7557 17.9448 12.9836 12.0858 12.9836ZM4.44925 20.0767C4.72918 16.3136 7.29476 14.407 12.0858 14.407C16.8768 14.407 19.4424 16.3136 19.7226 20.0767H4.44925Z" fill="#165A0B"/>
<path d="M12.0859 2C9.39456 2 7.36511 4.07028 7.36511 6.81547C7.36511 9.64107 9.48284 11.9396 12.0859 11.9396C14.689 11.9396 16.8067 9.64107 16.8067 6.8157C16.8067 4.07028 14.7772 2 12.0859 2ZM12.0859 10.5164C10.2676 10.5164 8.78846 8.85631 8.78846 6.8157C8.78846 4.85005 10.1753 3.42335 12.0859 3.42335C13.9659 3.42335 15.3833 4.88158 15.3833 6.8157C15.3833 8.85631 13.9042 10.5164 12.0859 10.5164Z" fill="#165A0B"/>
</svg>
