<svg width="48" height="48" viewBox="0 0 48 48" fill="none" xmlns="http://www.w3.org/2000/svg">
<path d="M44 7H4C2.34315 7 1 8.34315 1 10V38C1 39.6569 2.34315 41 4 41H44C45.6569 41 47 39.6569 47 38V10C47 8.34315 45.6569 7 44 7Z" fill="#1A1876"/>
<path d="M19.238 28.8001H21.847L23.48 19.2241H20.87L19.238 28.8001Z" fill="white"/>
<path d="M28.743 23.069C27.831 22.626 27.272 22.33 27.278 21.882C27.278 21.482 27.751 21.058 28.778 21.058C29.5347 21.0391 30.2849 21.2027 30.965 21.535L31.319 19.46C30.5688 19.1894 29.7765 19.054 28.979 19.06C26.4 19.06 24.579 20.36 24.568 22.22C24.554 23.596 25.868 24.364 26.855 24.82C27.871 25.289 28.213 25.588 28.208 26.007C28.201 26.649 27.397 26.943 26.646 26.943C25.6745 26.9657 24.7132 26.7403 23.853 26.288L23.487 28.431C24.4174 28.7748 25.4021 28.9479 26.394 28.942C29.138 28.942 30.919 27.658 30.939 25.671C30.944 24.581 30.249 23.752 28.743 23.069Z" fill="white"/>
<path d="M38.007 19.2329H35.99C35.7066 19.1966 35.4191 19.2548 35.172 19.3983C34.9249 19.5418 34.7319 19.7628 34.623 20.0269L30.747 28.7999H33.488C33.488 28.7999 33.936 27.6199 34.037 27.3609H37.38C37.458 27.6969 37.698 28.7959 37.698 28.7959H40.12L38.007 19.2329ZM34.789 25.4059C34.897 25.1289 35.962 22.3939 36.175 21.8149C36.527 23.4649 36.184 21.8639 36.955 25.4059H34.789Z" fill="white"/>
<path d="M17.049 19.2309L14.493 25.7609L14.221 24.4339L13.306 20.0339C13.2393 19.779 13.0828 19.5567 12.8652 19.4081C12.6477 19.2594 12.3837 19.1944 12.122 19.2249H7.913L7.88 19.4249C8.837 19.6507 9.75927 20.0042 10.622 20.4759L12.942 28.7929H15.704L19.813 19.2349L17.049 19.2309Z" fill="white"/>
</svg>
