<svg width="104" height="20" viewBox="0 0 104 20" fill="none" xmlns="http://www.w3.org/2000/svg">
<path d="M25.176 2.98196V0.220947H34.0738V2.98196H34.0627V18.4028H30.7957V2.98196H25.176Z" fill="white"/>
<path d="M39.236 0.220947H42.9559L47.4037 8.26427H47.5812L50.0598 4.03016H53.7797L49.1348 11.6201V18.4028H45.85V11.6201L39.236 0.220947Z" fill="white"/>
<path d="M58.0815 18.4028V0.220947H61.3752V15.6418H66.2531V18.4028H58.0815Z" fill="white"/>
<path d="M72.2416 18.4028V0.220947H80.7281V2.98196H75.5353V7.91804H83.2247V10.679H75.5353V15.6418H87.1792V18.4028H72.2416Z" fill="white"/>
<path d="M90.026 3.16986V0.411358H96.8441C98.2409 0.411358 99.4128 0.654019 100.36 1.13934C101.313 1.62466 102.032 2.3053 102.517 3.18124C103.008 4.05127 103.254 5.06631 103.254 6.22634C103.254 7.3923 103.005 8.40437 102.508 9.26257C102.017 10.1148 101.292 10.7748 100.333 11.2423C99.3743 11.704 98.1965 11.9348 96.7998 11.9348H90.0614V9.20042H96.3559C97.1726 9.20042 97.8414 9.08797 98.3623 8.86306C98.8831 8.63224 99.2678 8.29784 99.5164 7.85987C99.7709 7.41598 99.8981 6.87147 99.8981 6.22634C99.8981 5.58122 99.7709 5.03079 99.5164 4.57507C99.2619 4.11342 98.8742 3.76422 98.3534 3.52748C97.8325 3.28482 97.1608 3.16349 96.3381 3.16349H93.3196V3.16986H90.026ZM98.9662 9.22316L103.92 18.5932H100.244L95.226 9.19653L98.9662 9.22316Z" fill="white"/>
<rect x="0.0878906" y="0.773804" width="9.57389" height="9.57243" fill="white"/>
<rect x="9.66187" y="10.3467" width="9.57389" height="9.57243" fill="#D6D6D6"/>
</svg>
