<svg version="1.1" viewBox="0 0 292.15 292.15" xmlns="http://www.w3.org/2000/svg"><g fill="#a7aaad"><g stroke-width="1.301"><path d="M169.53 208.12l1.744.17zM110.38 163.93c13.248 18.688 18.441 24.089 43.103 24.089 40.344 0 84.345-16.918 89.72-66.307 1.08-9.93-2.004-19.521-5.635-28.189a73.114 73.114 0 10-76.38 113.22 73.296 73.296 0 01-50.807-42.817zM163.99 207.28q2.238.416 4.529.703-2.278-.287-4.529-.703zM174.45 208.49l-1.458-.078zM161.32 206.74c.859.195 1.718.39 2.603.547-.885-.183-1.744-.365-2.603-.547z"/><circle cx="197.56" cy="103.33" r="43.441"/><path d="M213.43 42.757a43.35 43.35 0 00-32.848 15.018h.156a1.9 1.9 0 01.573-.078l-.573.078a1.301 1.301 0 00-.234.104l-.807.963a2.733 2.733 0 00-.104.56c18.806-3.41 37.61-1.705 49.57 11.973 9.254 10.41 15.852 24.298 21.435 37.312a44.04 44.04 0 006.273-22.476 43.441 43.441 0 00-43.441-43.454z"/></g><path d="M20.571 66.468l9.735-6.09 41.957 22.578-4.047 8.303z"/><g stroke-width="1.301"><path d="M1.35 55.771s9.514 5.427 23.804 13.222l8.901 4.594 4.4-5.375a1.952 1.952 0 012.732-.26 1.926 1.926 0 01.26 2.72l-3.904 4.737 3.904 1.978 3.397-4.138a1.94 1.94 0 112.993 2.46l-2.915 3.487 3.306 1.705 4.71-5.74a1.94 1.94 0 012.994 2.46l-4.19 5.102 3.41 1.757 2.602-3.175a1.94 1.94 0 112.993 2.446l-2.095 2.603 3.735 1.952 4.477-5.453a1.94 1.94 0 112.993 2.447l-3.904 4.828 22.515 11.713c25.807 12.416 49.975 22.49 60.503 22.49 27.421 0 49.662-15.319 49.662-34.228 0-18.91-22.293-34.33-49.714-34.33zM27.38 66.482a1.301 1.301 0 010-.377 1.913 1.913 0 01.104-.365 1.301 1.301 0 01.182-.325 1.835 1.835 0 01.234-.3 1.952 1.952 0 011.757-.533l.351.117a1.367 1.367 0 01.339.17 2.746 2.746 0 01.3.246 1.835 1.835 0 01.233.3 1.301 1.301 0 01.183.325 1.301 1.301 0 01.104.365 1.848 1.848 0 010 .754 1.301 1.301 0 01-.104.365 1.301 1.301 0 01-.183.325 1.835 1.835 0 01-.234.3 1.692 1.692 0 01-.3.234 1.067 1.067 0 01-.338.182l-.35.117h-.378a1.952 1.952 0 01-1.38-.573 1.835 1.835 0 01-.234-.299 1.301 1.301 0 01-.182-.325 1.913 1.913 0 01-.104-.365 1.301 1.301 0 01.039-.351z"/><path d="M222.94 55.888a38.132 38.132 0 00-44.561 4.685 32.874 32.874 0 013.058 3.423c1.237 0 2.486-.091 3.722-.091a76.992 76.992 0 0156.846 24.974 38.132 38.132 0 00-19.066-32.991zM242.01 88.879c2.954 22.449 1.106 29.035 1.106 29.035l28.722 53.215a32.08 32.08 0 003.332-5.895z"/><path d="M275.17 165.23a32.08 32.08 0 01-3.332 5.895l18.962 33.681z"/><circle cx="242.01" cy="89.452" r="4.165"/><path d="M157.49 122.96a15.083 15.083 0 01-2.46-.234c-5.648-.937-14.797-4.685-27.187-11.14C96.18 95.11 51.918 65.45 39.49 57.069h118c11.804 0 22.931 4.307 30.518 11.804a33.212 33.212 0 012.942 3.305 28.957 28.957 0 016.35 17.023v1.692c-.572 17.66-18.389 32.067-39.81 32.067z"/><path d="M157.49 58.27c11.479 0 22.28 4.165 29.633 11.439a29.763 29.763 0 012.837 3.188 27.694 27.694 0 016.09 16.334v1.561c-.52 17.05-17.815 30.922-38.56 30.922a13.925 13.925 0 01-2.252-.221c-5.518-.911-14.472-4.555-26.822-11.062-29.19-15.188-69.118-41.645-84.827-52.213h113.9m0-2.512H35.42s54.36 37.442 91.841 56.95c11.426 5.948 21.291 10.216 27.564 11.27a17.231 17.231 0 002.603.248c22.384.052 40.604-14.81 41.138-33.264v-1.77a30.154 30.154 0 00-6.624-17.751 32.835 32.835 0 00-3.02-3.475c-7.574-7.444-18.831-12.142-31.428-12.142z"/></g><path d="M166.927 218.25l6.975-5.128 26.028 17.725-5.908 6.729z"/><g stroke-width="1.301"><path d="M114.39 173.19c3.787 7.392 19.521 20.732 37.546 34.371l23.803 16.918 4.334-4.334a1.94 1.94 0 112.746 2.733l-3.905 3.905 3.098 2.199 2.251-2.251a1.942 1.942 0 112.746 2.746l-1.796 1.796 3.384 2.407 4.581-4.594a1.942 1.942 0 012.746 2.746l-4.138 4.126 5.882 4.19c10.607 7.236 17.829 11.96 17.829 11.96l-53.06-103.54c-9.864-19.248-28.63-29.347-41.892-22.554-13.261 6.794-16.02 27.928-6.156 47.176zm57.575 45.55a1.73 1.73 0 010-.364 1.705 1.705 0 01.117-.365 1.64 1.64 0 01.17-.338 1.783 1.783 0 01.247-.286l.286-.248a2.147 2.147 0 01.338-.182 1.171 1.171 0 01.365-.104 1.848 1.848 0 01.754 0 1.171 1.171 0 01.365.104 2.147 2.147 0 01.338.182l.287.248a1.887 1.887 0 01.572 1.3 1.952 1.952 0 01-.572 1.38 1.952 1.952 0 01-2.733 0 1.887 1.887 0 01-.248-.299 1.549 1.549 0 01-.169-.325 1.978 1.978 0 01-.117-.365 1.887 1.887 0 01.039-.39z"/><path d="M200.29 225.18c-11.309-6.208-46.851-26.028-69.301-41.971-8.967-6.35-14.862-11.4-17.543-15.018a10.841 10.841 0 01-1.028-1.6c-7.64-14.902-3.996-32.537 8.134-39.148l.572-.312.521-.26a21.929 21.929 0 019.5-2.122 24.727 24.727 0 014.646.443 25.287 25.287 0 013.345.872 34.071 34.071 0 0119.105 17.049z"/><path d="M131.14 126.05a24.415 24.415 0 017.6 1.301 32.796 32.796 0 0118.376 16.424l3.085 6.026 37.09 72.385c-13.951-7.73-45.224-25.443-65.58-39.902-8.862-6.286-14.666-11.244-17.27-14.745a10.19 10.19 0 01-.91-1.432c-7.327-14.316-3.905-31.117 7.613-37.468l.547-.299.56-.273a20.458 20.458 0 018.888-2.017m0-2.512a23.009 23.009 0 00-9.969 2.225l-.625.3-.611.325c-12.78 7.054-16.671 25.143-8.642 40.826a13.756 13.756 0 001.132 1.783c2.994 4.021 9.54 9.41 17.83 15.292 27.173 19.3 73.01 43.988 73.01 43.988l-40.827-79.712-3.084-6.026a35.203 35.203 0 00-19.82-17.66 24.935 24.935 0 00-3.515-.91 25.846 25.846 0 00-4.88-.521zM74.959 136.85a1.12 1.12 0 00.768-.312l30.805-30.805a1.106 1.106 0 000-1.536 1.08 1.08 0 00-1.536 0l-30.805 30.805a1.08 1.08 0 00.768 1.848zM74.777 152.6a1.067 1.067 0 00.768-.312l9.526-9.527a1.09 1.09 0 10-1.561-1.522l-9.488 9.539a1.08 1.08 0 000 1.536 1.067 1.067 0 00.755.286zM88.806 138.58a1.12 1.12 0 00.768-.312l12.103-12.116a1.08 1.08 0 000-1.536 1.067 1.067 0 00-1.523 0l-12.116 12.116a1.08 1.08 0 00.768 1.848zM69.076 172.9a1.12 1.12 0 00.768-.312l30.453-30.466a1.08 1.08 0 000-1.536 1.106 1.106 0 00-1.536 0l-30.453 30.466a1.08 1.08 0 00.768 1.848zM83.431 174.06a1.067 1.067 0 00.768-.312l8.654-8.655a1.08 1.08 0 000-1.535 1.106 1.106 0 00-1.535 0l-8.655 8.654a1.106 1.106 0 000 1.536 1.12 1.12 0 00.768.312z"/><path d="M97.825 159.69a1.093 1.093 0 00.768-.312l25.013-25.013a1.081 1.081 0 00-1.536-1.523l-25.013 25a1.106 1.106 0 000 1.536 1.12 1.12 0 00.768.312zM75.297 197.08a1.028 1.028 0 00.768-.325l48.153-48.153a1.086 1.086 0 00-1.536-1.536L74.53 195.219a1.093 1.093 0 00.768 1.848zM99.881 188.07a1.12 1.12 0 00.768-.312l21.46-21.46a1.086 1.086 0 00-1.536-1.536l-21.447 21.46a1.08 1.08 0 00.768 1.848zM86.372 216.12a1.028 1.028 0 00.768-.325l9.11-9.175a1.067 1.067 0 000-1.523 1.08 1.08 0 00-1.536 0l-9.11 9.11a1.08 1.08 0 000 1.536 1.028 1.028 0 00.768.377zM101.26 201.23a1.093 1.093 0 00.768-.312l21.29-21.291a1.086 1.086 0 10-1.535-1.536l-21.29 21.291a1.08 1.08 0 00.767 1.848zM108.87 208.84a1.067 1.067 0 00.768-.312l11.075-11.075a1.086 1.086 0 00-1.536-1.536l-11.075 11.075a1.106 1.106 0 000 1.536 1.12 1.12 0 00.768.312zM106.02 226.58a1.12 1.12 0 00.768-.312l24.87-24.844a1.067 1.067 0 000-1.523 1.08 1.08 0 00-1.536 0l-24.83 24.831a1.08 1.08 0 00.767 1.848z"/></g></g></svg>