<svg xmlns="http://www.w3.org/2000/svg" xmlns:xlink="http://www.w3.org/1999/xlink" width="100%" height="100%" viewBox="0 0 256 256" fill-rule="evenodd" stroke-linecap="round" stroke-linejoin="round" stroke-miterlimit="1.5" xmlns:v="https://vecta.io/nano"><g transform="translate(-.1 -.1)"><path d="M254.4 45.71c0-24.235-19.675-43.91-43.91-43.91H45.71C21.475 1.8 1.8 21.475 1.8 45.71v164.78c0 24.235 19.675 43.91 43.91 43.91h164.78c24.235 0 43.91-19.675 43.91-43.91V45.71z" fill="#fff" stroke="#000" stroke-width="1.253"/><g transform="matrix(.940266 0 0 .940266 -62.1857 10.0904)"><g fill="#008bff" fill-rule="nonzero"><use xlink:href="#C"/><path d="M168.608 32.825a.53.53 0 0 1-.576-.443l-7.135-21.625c-.044-.044-.044-.133-.044-.222 0-.266.177-.399.487-.399h4.52c.31 0 .532.133.62.443l4.298 14.801c.044.089.089.133.133.133s.089-.044.133-.133l4.298-14.801c.089-.31.31-.443.62-.443l4.52.089c.177 0 .31.044.399.177.089.089.089.222.044.443l-7.09 21.536a.53.53 0 0 1-.576.443h-4.653z"/><use xlink:href="#C" x="44.136"/><path d="M218.46 9.826c2.393 0 4.298.709 5.761 2.127 1.418 1.418 2.127 3.368 2.127 5.805v14.535c0 .133-.044.266-.133.355a.54.54 0 0 1-.399.177h-4.077c-.133 0-.266-.044-.355-.177-.133-.089-.177-.222-.177-.355V18.822c0-1.374-.399-2.482-1.152-3.324-.753-.798-1.773-1.241-3.058-1.241s-2.304.399-3.102 1.241c-.753.842-1.152 1.905-1.152 3.279v13.516c0 .133-.044.266-.177.355-.089.133-.222.177-.355.177h-4.077c-.133 0-.266-.044-.355-.177-.133-.089-.177-.222-.177-.355v-21.58c0-.133.044-.266.177-.355.089-.133.222-.177.355-.177h4.077c.133 0 .266.044.355.177.133.089.177.222.177.355v1.418c0 .089.044.133.089.177s.089 0 .133-.089c1.196-1.595 3.058-2.393 5.495-2.393zm25.259 3.989c0 .133-.044.266-.133.355a.54.54 0 0 1-.399.177h-4.52c-.133 0-.222.089-.222.222v10.68c0 1.108.266 1.95.753 2.437s1.241.753 2.304.753h1.329c.133 0 .266.044.399.133.089.133.133.266.133.399v3.324c0 .31-.177.532-.532.576l-2.304.044c-2.349 0-4.077-.399-5.229-1.196s-1.728-2.304-1.773-4.52V14.568c0-.133-.089-.222-.222-.222h-2.526c-.133 0-.266-.044-.355-.177-.133-.089-.177-.222-.177-.355v-3.102c0-.133.044-.266.177-.355.089-.133.222-.177.355-.177h2.526c.133 0 .222-.089.222-.222V4.775a.54.54 0 0 1 .177-.399c.089-.089.222-.133.355-.133h3.855c.133 0 .266.044.399.133.089.133.133.266.133.399V9.96c0 .133.089.222.222.222h4.52a.54.54 0 0 1 .399.177c.089.089.133.222.133.355v3.102zm12.984 19.276c-1.861 0-3.501-.266-4.919-.842-1.374-.532-2.482-1.285-3.235-2.26a4.95 4.95 0 0 1-1.152-3.191V26.4a.54.54 0 0 1 .177-.399c.089-.089.222-.133.355-.133h3.9c.133 0 .266.044.399.133.089.133.133.266.133.399v.089c0 .753.399 1.374 1.241 1.905.798.576 1.817.842 3.058.842 1.196 0 2.127-.222 2.88-.753.753-.487 1.108-1.064 1.108-1.817a1.63 1.63 0 0 0-.886-1.507c-.62-.355-1.595-.709-2.969-1.108l-1.684-.532c-1.507-.443-2.792-.931-3.811-1.418s-1.905-1.196-2.615-2.083c-.709-.842-1.064-1.95-1.064-3.324 0-2.083.798-3.722 2.437-4.919 1.64-1.241 3.767-1.861 6.425-1.861 1.817 0 3.368.31 4.742.842 1.374.576 2.393 1.374 3.146 2.393s1.108 2.216 1.108 3.501c0 .133-.044.266-.133.355a.54.54 0 0 1-.399.177h-3.767a.54.54 0 0 1-.399-.177c-.089-.089-.133-.222-.133-.355 0-.753-.355-1.418-1.108-1.905-.753-.532-1.817-.798-3.102-.798-1.152 0-2.083.222-2.792.665-.753.399-1.108 1.019-1.108 1.773 0 .709.355 1.241 1.064 1.595.665.399 1.817.798 3.456 1.241l.975.266 3.944 1.418c1.064.487 1.95 1.196 2.703 2.038.753.886 1.108 2.038 1.108 3.412 0 2.083-.842 3.722-2.482 4.919s-3.855 1.817-6.603 1.817z"/></g><path d="M153.288 72.907c-1.476 0-2.832-.239-3.948-.718-1.196-.479-2.074-1.117-2.672-1.914-.638-.798-.957-1.675-.957-2.672v-.479c0-.279.12-.399.399-.399h1.914c.279 0 .399.12.399.399v.319c0 .877.479 1.635 1.396 2.273.917.678 2.034.997 3.43.997s2.513-.319 3.35-.957c.838-.598 1.276-1.396 1.276-2.353 0-.678-.199-1.196-.678-1.635-.399-.439-.917-.758-1.516-.997s-1.555-.558-2.792-.917l-3.669-1.276c-.957-.439-1.755-1.037-2.393-1.795-.678-.758-.997-1.715-.997-2.872 0-1.715.678-3.071 1.994-4.068s3.071-1.516 5.264-1.516c1.476 0 2.752.239 3.908.718 1.117.479 1.994 1.117 2.592 1.954a4.8 4.8 0 0 1 .917 2.832v.12c0 .279-.12.399-.399.399h-1.874c-.279 0-.399-.12-.399-.399v-.12c0-.917-.439-1.675-1.276-2.273-.877-.598-2.034-.917-3.51-.917-1.356 0-2.433.279-3.27.798-.838.558-1.236 1.316-1.236 2.273 0 .917.399 1.595 1.196 2.074s2.034.957 3.709 1.436c1.555.439 2.792.877 3.749 1.276s1.795.957 2.473 1.715 1.037 1.755 1.037 2.991c0 1.715-.678 3.111-2.034 4.148s-3.151 1.555-5.384 1.555zm28.037-13.68c.12.758.16 1.675.16 2.792v1.276c0 .279-.12.399-.399.399h-12.882c-.12 0-.16.04-.16.16.04 1.476.12 2.393.239 2.832.279 1.196.917 2.154 1.874 2.832s2.194 1.037 3.669 1.037c1.117 0 2.114-.239 2.951-.758a5.47 5.47 0 0 0 1.994-2.154c.16-.239.359-.279.558-.16l1.555.917a.39.39 0 0 1 .16.558c-.678 1.276-1.675 2.273-2.991 2.991-1.316.758-2.872 1.117-4.586 1.117-1.874-.04-3.47-.479-4.746-1.356s-2.194-2.114-2.752-3.669c-.479-1.276-.718-3.111-.718-5.504l.08-2.752c.04-.678.12-1.316.279-1.874.439-1.715 1.356-3.111 2.712-4.148 1.396-1.037 3.031-1.555 4.985-1.555 2.433 0 4.267.598 5.584 1.835s2.114 2.951 2.433 5.185zm-8.016-4.547c-1.316 0-2.393.319-3.23.997-.877.718-1.436 1.595-1.715 2.752-.16.558-.279 1.476-.319 2.712 0 .12.04.16.16.16h10.33c.12 0 .16-.04.16-.16-.04-1.196-.12-2.034-.239-2.552-.279-1.196-.877-2.154-1.755-2.872-.917-.678-2.034-1.037-3.39-1.037zm20.579-2.472c2.393 0 4.228.598 5.544 1.835s1.954 2.832 1.954 4.866v13.4c0 .279-.12.399-.399.399h-2.034c-.279 0-.399-.12-.399-.399v-1.635c0-.04 0-.08-.04-.12s-.12 0-.16.04c-.678.798-1.516 1.396-2.592 1.795-1.077.439-2.233.638-3.55.638-1.874 0-3.47-.479-4.746-1.436s-1.914-2.433-1.914-4.387c0-1.994.718-3.589 2.194-4.746 1.436-1.117 3.43-1.715 6.022-1.715h4.626c.12 0 .16-.04.16-.16v-1.516c0-1.356-.359-2.433-1.117-3.23-.758-.758-1.954-1.157-3.55-1.157-1.276 0-2.313.239-3.111.718-.798.518-1.276 1.196-1.476 2.074-.08.279-.239.399-.479.359l-2.154-.279c-.279-.04-.399-.16-.359-.319.199-1.476.997-2.712 2.393-3.629s3.111-1.396 5.185-1.396zm-1.117 18.386c1.555 0 2.911-.399 4.068-1.196 1.157-.758 1.715-1.835 1.715-3.151v-3.111c0-.12-.04-.16-.16-.16h-4.188c-1.755 0-3.151.359-4.228 1.077s-1.595 1.715-1.595 2.991c0 1.157.399 2.034 1.236 2.632.798.598 1.835.917 3.151.917zm22.654-18.266c.877 0 1.635.16 2.273.518.199.12.279.279.239.518l-.439 1.954c-.08.279-.239.359-.518.239-.439-.199-.957-.279-1.555-.279l-.518.04a4.73 4.73 0 0 0-3.43 1.516c-.917.997-1.356 2.233-1.356 3.709v11.765c0 .279-.12.399-.399.399h-2.034c-.279 0-.399-.12-.399-.399V52.926c0-.279.12-.399.399-.399h2.034c.279 0 .399.12.399.399v2.433c0 .08.04.12.08.12.04.04.04 0 .08-.04.558-.997 1.276-1.755 2.154-2.313.838-.518 1.835-.798 2.991-.798zm13.799 20.698c-1.914 0-3.55-.518-4.906-1.476-1.396-1.037-2.313-2.353-2.832-4.068-.359-1.157-.518-2.832-.518-4.945 0-1.914.16-3.55.518-4.866.479-1.635 1.396-2.991 2.792-3.948 1.396-.997 3.031-1.516 4.945-1.516 1.954 0 3.629.479 5.065 1.476 1.396.997 2.313 2.194 2.752 3.669l.239 1.196v.08c0 .199-.12.319-.359.359l-1.994.279h-.08c-.199 0-.319-.12-.359-.359l-.12-.598c-.239-.997-.838-1.874-1.755-2.592-.917-.678-2.074-1.037-3.39-1.037s-2.433.359-3.31 1.037c-.917.718-1.476 1.675-1.755 2.832-.239.997-.359 2.353-.359 4.028 0 1.755.12 3.111.359 4.068.279 1.196.838 2.154 1.755 2.832.877.718 1.994 1.077 3.31 1.077s2.433-.359 3.39-1.037c.917-.678 1.516-1.516 1.755-2.592v-.16l.04-.16c.04-.279.199-.359.479-.319l1.954.319c.279.04.399.199.359.439l-.16.798c-.399 1.555-1.316 2.792-2.752 3.749s-3.111 1.436-5.065 1.436zm21.497-20.778c2.114 0 3.829.638 5.105 1.874 1.236 1.236 1.874 2.911 1.874 5.025v13.161c0 .279-.12.399-.399.399h-2.034c-.279 0-.399-.12-.399-.399V59.706c0-1.476-.439-2.672-1.316-3.589-.917-.917-2.074-1.396-3.47-1.396-1.476 0-2.632.439-3.55 1.356s-1.356 2.074-1.356 3.55V72.31c0 .279-.12.399-.399.399h-2.034c-.279 0-.399-.12-.399-.399V45.19c0-.279.12-.399.399-.399h2.034c.279 0 .399.12.399.399v9.452c0 .04.04.08.08.12s.04 0 .08-.04c1.157-1.635 2.951-2.473 5.384-2.473z" fill-rule="nonzero" fill="#0f1031"/></g><g transform="matrix(.946501 0 0 .946192 5.57265 30.3155)"><g transform="matrix(.874814 0 0 .874814 14.6494 3.34407)"><use xlink:href="#D" fill="#fff"/><clipPath id="A"><use xlink:href="#D"/></clipPath><g clip-path="url(#A)"><path d="M54.663 101.162h153.138v36.158H54.663z" fill="#008bff"/></g><use xlink:href="#D" fill="none" stroke="#0f1031" stroke-width="5.74"/></g><g fill="#0f1031"><use xlink:href="#E" transform="matrix(.615774 0 0 1.49855 56.246 -147.69)"/><use xlink:href="#E" transform="matrix(.615774 0 0 1.49855 136.162 -147.69)"/></g><path d="M.986-.01L.792-.205C.783-.214.771-.219.758-.219H.727a.41.41 0 0 0 .086-.25c0-.224-.182-.406-.407-.406S0-.693 0-.469s.182.406.406.406c.095 0 .181-.032.25-.085v.031c0 .013.005.025.014.034l.195.194c.018.019.048.019.066 0L.986.056c.018-.018.018-.048 0-.066zm-.58-.209a.25.25 0 0 1-.25-.25.25.25 0 1 1 .5 0 .25.25 0 0 1-.25.25z" fill="#008bff" fill-rule="nonzero" transform="matrix(76.643781 0 0 76.643781 91.13378 201.525848)"/></g></g><defs ><path id="C" d="M158.593 18.955c.133.753.177 1.551.177 2.482l-.044 1.374c0 .355-.177.532-.532.532h-13.87c-.133 0-.222.089-.222.222.089.975.222 1.64.399 1.994.709 2.127 2.437 3.191 5.185 3.235 1.994 0 3.589-.842 4.786-2.482.133-.177.266-.266.443-.266.133 0 .222.044.31.133l2.747 2.26c.266.222.31.443.133.709-.931 1.285-2.127 2.304-3.634 3.013-1.551.709-3.235 1.064-5.096 1.064-2.304 0-4.254-.532-5.849-1.551-1.64-1.019-2.792-2.482-3.545-4.343-.665-1.595-1.019-3.811-1.019-6.647 0-1.728.177-3.102.532-4.165.576-2.083 1.728-3.722 3.368-4.875 1.595-1.196 3.589-1.817 5.894-1.817 5.805 0 9.084 3.058 9.838 9.129zm-9.838-4.697c-1.108 0-1.994.266-2.703.798-.753.576-1.241 1.329-1.551 2.304-.177.487-.31 1.152-.355 1.95-.044.133 0 .222.177.222h8.996c.133 0 .222-.089.222-.222-.044-.753-.133-1.285-.266-1.684-.266-1.064-.798-1.905-1.551-2.482-.798-.576-1.773-.886-2.969-.886z"/><path id="D" d="M207.801 124.133c0-12.678-10.29-22.971-22.963-22.971H77.626c-12.674 0-22.963 10.293-22.963 22.971v107.196c0 12.678 10.289 22.971 22.963 22.971h107.212c12.673 0 22.963-10.293 22.963-22.971V124.133z"/><path id="E" d="M57.829 146.085c0-.87-1.718-1.576-3.833-1.576s-3.834.706-3.834 1.576V173.6c0 .87 1.718 1.576 3.834 1.576s3.833-.706 3.833-1.576v-27.515z"/></defs></svg>