<svg xmlns="http://www.w3.org/2000/svg" xmlns:xlink="http://www.w3.org/1999/xlink" width="100%" height="100%" viewBox="0 0 256 256" fill-rule="evenodd" stroke-linecap="round" stroke-linejoin="round" stroke-miterlimit="1.5" xmlns:v="https://vecta.io/nano"><g transform="translate(-.1 -.1)"><path d="M254.4 45.71c0-24.235-19.675-43.91-43.91-43.91H45.71C21.475 1.8 1.8 21.475 1.8 45.71v164.78c0 24.235 19.675 43.91 43.91 43.91h164.78c24.235 0 43.91-19.675 43.91-43.91V45.71z" fill="#fff" stroke="#000" stroke-width="1.253"/><g transform="matrix(.940266 0 0 .940266 -62.1857 10.0904)"><g fill="#008bff" fill-rule="nonzero"><use xlink:href="#C"/><path d="M168.608 32.825a.53.53 0 0 1-.576-.443l-7.135-21.625c-.044-.044-.044-.133-.044-.222 0-.266.177-.399.487-.399h4.52c.31 0 .532.133.62.443l4.298 14.801c.044.089.089.133.133.133s.089-.044.133-.133l4.298-14.801c.089-.31.31-.443.62-.443l4.52.089c.177 0 .31.044.399.177.089.089.089.222.044.443l-7.09 21.536a.53.53 0 0 1-.576.443h-4.653z"/><use xlink:href="#C" x="44.136"/><path d="M218.46 9.826c2.393 0 4.298.709 5.761 2.127 1.418 1.418 2.127 3.368 2.127 5.805v14.535c0 .133-.044.266-.133.355a.54.54 0 0 1-.399.177h-4.077c-.133 0-.266-.044-.355-.177-.133-.089-.177-.222-.177-.355V18.822c0-1.374-.399-2.482-1.152-3.324-.753-.798-1.773-1.241-3.058-1.241s-2.304.399-3.102 1.241c-.753.842-1.152 1.905-1.152 3.279v13.516c0 .133-.044.266-.177.355-.089.133-.222.177-.355.177h-4.077c-.133 0-.266-.044-.355-.177-.133-.089-.177-.222-.177-.355v-21.58c0-.133.044-.266.177-.355.089-.133.222-.177.355-.177h4.077c.133 0 .266.044.355.177.133.089.177.222.177.355v1.418c0 .089.044.133.089.177s.089 0 .133-.089c1.196-1.595 3.058-2.393 5.495-2.393zm25.259 3.989c0 .133-.044.266-.133.355a.54.54 0 0 1-.399.177h-4.52c-.133 0-.222.089-.222.222v10.68c0 1.108.266 1.95.753 2.437s1.241.753 2.304.753h1.329c.133 0 .266.044.399.133.089.133.133.266.133.399v3.324c0 .31-.177.532-.532.576l-2.304.044c-2.349 0-4.077-.399-5.229-1.196s-1.728-2.304-1.773-4.52V14.568c0-.133-.089-.222-.222-.222h-2.526c-.133 0-.266-.044-.355-.177-.133-.089-.177-.222-.177-.355v-3.102c0-.133.044-.266.177-.355.089-.133.222-.177.355-.177h2.526c.133 0 .222-.089.222-.222V4.775a.54.54 0 0 1 .177-.399c.089-.089.222-.133.355-.133h3.855c.133 0 .266.044.399.133.089.133.133.266.133.399V9.96c0 .133.089.222.222.222h4.52a.54.54 0 0 1 .399.177c.089.089.133.222.133.355v3.102zm12.984 19.276c-1.861 0-3.501-.266-4.919-.842-1.374-.532-2.482-1.285-3.235-2.26a4.95 4.95 0 0 1-1.152-3.191V26.4a.54.54 0 0 1 .177-.399c.089-.089.222-.133.355-.133h3.9c.133 0 .266.044.399.133.089.133.133.266.133.399v.089c0 .753.399 1.374 1.241 1.905.798.576 1.817.842 3.058.842 1.196 0 2.127-.222 2.88-.753.753-.487 1.108-1.064 1.108-1.817a1.63 1.63 0 0 0-.886-1.507c-.62-.355-1.595-.709-2.969-1.108l-1.684-.532c-1.507-.443-2.792-.931-3.811-1.418s-1.905-1.196-2.615-2.083c-.709-.842-1.064-1.95-1.064-3.324 0-2.083.798-3.722 2.437-4.919 1.64-1.241 3.767-1.861 6.425-1.861 1.817 0 3.368.31 4.742.842 1.374.576 2.393 1.374 3.146 2.393s1.108 2.216 1.108 3.501c0 .133-.044.266-.133.355a.54.54 0 0 1-.399.177h-3.767a.54.54 0 0 1-.399-.177c-.089-.089-.133-.222-.133-.355 0-.753-.355-1.418-1.108-1.905-.753-.532-1.817-.798-3.102-.798-1.152 0-2.083.222-2.792.665-.753.399-1.108 1.019-1.108 1.773 0 .709.355 1.241 1.064 1.595.665.399 1.817.798 3.456 1.241l.975.266 3.944 1.418c1.064.487 1.95 1.196 2.703 2.038.753.886 1.108 2.038 1.108 3.412 0 2.083-.842 3.722-2.482 4.919s-3.855 1.817-6.603 1.817z"/></g><path d="M174.067 57.672c.319 1.196.479 2.832.479 4.945 0 2.194-.199 3.869-.558 5.065-.518 1.635-1.396 2.951-2.632 3.908s-2.792 1.436-4.666 1.436c-1.077 0-2.034-.199-2.911-.638s-1.595-1.037-2.194-1.835c-.04-.04-.08-.08-.12-.08-.04.04-.08.08-.08.12v1.715c0 .279-.12.399-.399.399h-2.034c-.279 0-.399-.12-.399-.399v-27.12c0-.279.12-.399.399-.399h2.034c.279 0 .399.12.399.399V54.6c0 .04.04.08.08.08.04.04.08 0 .12-.04.598-.758 1.316-1.356 2.194-1.795s1.835-.638 2.911-.638c1.874 0 3.47.479 4.746 1.476 1.276.957 2.154 2.273 2.632 3.988zm-3.071 9.771c.279-.558.439-1.196.558-1.914.12-.678.16-1.675.16-2.911 0-1.316-.08-2.313-.199-3.071a7.61 7.61 0 0 0-.718-1.954c-.359-.877-.917-1.595-1.675-2.114s-1.675-.798-2.752-.798c-.997 0-1.874.279-2.592.798-.758.558-1.276 1.276-1.595 2.194-.279.558-.439 1.196-.558 1.914s-.199 1.715-.199 3.031c0 1.276.08 2.273.199 2.951.12.718.279 1.356.518 1.914.359.917.877 1.675 1.595 2.233s1.595.838 2.672.838c1.117 0 2.074-.279 2.872-.838a4.25 4.25 0 0 0 1.715-2.273zm9.731 5.264c-.279 0-.399-.12-.399-.399v-27.12c0-.279.12-.399.399-.399h2.034c.279 0 .399.12.399.399v27.12c0 .279-.12.399-.399.399h-2.034zm16.472.319c-1.914 0-3.55-.479-4.945-1.476s-2.353-2.353-2.872-4.068c-.359-1.236-.558-2.872-.558-4.906s.199-3.669.558-4.866c.518-1.715 1.436-3.031 2.832-4.028s3.071-1.476 5.025-1.476c1.874 0 3.51.479 4.906 1.476 1.356.997 2.273 2.313 2.792 3.988.359 1.157.558 2.792.558 4.906 0 2.154-.199 3.789-.558 4.906-.518 1.715-1.436 3.071-2.792 4.068-1.396.997-3.031 1.476-4.945 1.476zm0-2.473c1.276 0 2.353-.359 3.27-1.077.917-.678 1.516-1.635 1.835-2.832.239-.957.359-2.313.359-4.028 0-1.755-.12-3.111-.319-4.028-.319-1.196-.917-2.154-1.835-2.872-.917-.678-2.034-1.037-3.35-1.037s-2.393.359-3.31 1.037c-.917.718-1.516 1.675-1.835 2.872-.199.917-.319 2.273-.319 4.028s.12 3.111.319 4.028c.279 1.196.917 2.154 1.835 2.832.917.718 2.034 1.077 3.35 1.077zm21.656 2.473c-1.914 0-3.55-.518-4.906-1.476-1.396-1.037-2.313-2.353-2.832-4.068-.359-1.157-.518-2.832-.518-4.945 0-1.914.16-3.55.518-4.866.479-1.635 1.396-2.991 2.792-3.948 1.396-.997 3.031-1.516 4.945-1.516 1.954 0 3.629.479 5.065 1.476 1.396.997 2.313 2.194 2.752 3.669l.239 1.196v.08c0 .199-.12.319-.359.359l-1.994.279h-.08c-.199 0-.319-.12-.359-.359l-.12-.598c-.239-.997-.838-1.874-1.755-2.592-.917-.678-2.074-1.037-3.39-1.037s-2.433.359-3.31 1.037c-.917.718-1.476 1.675-1.755 2.832-.239.997-.359 2.353-.359 4.028 0 1.755.12 3.111.359 4.068.279 1.196.838 2.154 1.755 2.832.877.718 1.994 1.077 3.31 1.077s2.433-.359 3.39-1.037c.917-.678 1.516-1.516 1.755-2.592v-.16l.04-.16c.04-.279.199-.359.479-.319l1.954.319c.279.04.399.199.359.439l-.16.798c-.399 1.555-1.316 2.792-2.752 3.749s-3.111 1.436-5.065 1.436zm13.519-.319c-.279 0-.399-.12-.399-.399v-27.12c0-.279.12-.399.399-.399h2.034c.279 0 .399.12.399.399V61.5c0 .04.04.08.08.12s.08 0 .12-.04l8.455-8.854a.66.66 0 0 1 .479-.199h2.393c.16 0 .279.04.319.16s.04.199-.08.319l-5.105 5.663c-.04.04-.08.12-.04.199l6.102 13.361.04.16c0 .199-.12.319-.359.319h-2.154c-.199 0-.359-.12-.439-.319l-5.145-11.646c-.04-.12-.12-.12-.199-.04l-4.387 4.626c-.04.04-.08.12-.08.199v6.78c0 .279-.12.399-.399.399h-2.034z" fill-rule="nonzero" fill="#0f1031"/></g><g transform="matrix(.946501 0 0 .946501 5.57265 31.0391)"><g transform="matrix(.874814 0 0 .874814 14.6494 3.34407)"><use xlink:href="#D" fill="#fff"/><clipPath id="A"><use xlink:href="#D"/></clipPath><g clip-path="url(#A)"><path d="M54.663 101.162h153.138v36.158H54.663z" fill="#008bff"/></g><use xlink:href="#D" fill="none" stroke="#0f1031" stroke-width="5.74"/></g><g fill="#0f1031"><use xlink:href="#E"/><use xlink:href="#E" x="79.916"/></g><g fill="#fff"><g stroke="#a7a7a7"><path d="M100.934 132.156h83.102v83.102h-83.102z" stroke-width="1.332"/><path d="M100.602 138.643l-6.863 4.164 6.863 2.915" stroke-linecap="square" stroke-width="1.334"/></g><path d="M101.882 138.643l-6.863 4.164 6.863 2.915"/><circle cx="104.335" cy="110.841" r="14.882" stroke="#a7a7a7" stroke-width="5" transform="matrix(.521251 0 0 .521251 28.2423 84.4069)"/></g><g fill-rule="nonzero"><path d="M81.428 146.379v-3.128h-3.041v-2.137h3.041v-3.128h2.398v3.128h3.041v2.137h-3.041v3.128h-2.398z" fill="#a7a7a7"/><g fill="#0f1031"><path d="M122.204 204.739c-1.224 0-2.281-.24-3.169-.696-.912-.456-1.608-1.08-2.113-1.921-.504-.816-.744-1.777-.744-2.857v-1.512c0-.072.024-.144.096-.216.048-.048.12-.072.192-.072h2.809c.072 0 .144.024.216.072.048.072.072.144.072.216v1.512c0 .768.24 1.392.72 1.873.456.456 1.104.696 1.921.696.792 0 1.44-.24 1.921-.696.528-.48.768-1.104.768-1.873V188.03c0-.072.024-.144.096-.216.048-.048.12-.072.192-.072h2.785c.072 0 .144.024.216.072.048.072.072.144.072.216v11.235c0 1.08-.264 2.041-.768 2.857-.504.84-1.224 1.464-2.137 1.921s-1.969.696-3.145.696zm15.965-12.244c0-.072.024-.144.096-.192.048-.072.12-.096.192-.096h2.809c.072 0 .144.024.216.096.048.048.072.12.072.192v11.764c0 .072-.024.144-.072.192-.072.072-.144.096-.216.096h-2.809c-.072 0-.144-.024-.192-.096-.072-.048-.096-.12-.096-.192v-.816c0-.048-.024-.072-.048-.096-.024 0-.072.024-.096.072-.648.864-1.632 1.296-2.977 1.296-1.224 0-2.209-.36-3.001-1.104s-1.176-1.777-1.176-3.097v-8.018c0-.072.024-.144.072-.192.072-.072.144-.096.216-.096h2.785c.072 0 .144.024.216.096.048.048.072.12.072.192v7.178c0 .648.168 1.152.528 1.56.336.408.816.6 1.416.6.552 0 .984-.168 1.344-.504.36-.312.576-.744.648-1.272v-7.562zm12.316-.48c1.272 0 2.305.384 3.097 1.176s1.176 1.849 1.176 3.193v7.874c0 .072-.024.144-.072.192-.072.072-.144.096-.216.096h-2.809c-.072 0-.144-.024-.192-.096-.072-.048-.096-.12-.096-.192v-7.178c0-.648-.192-1.152-.528-1.56-.36-.408-.84-.6-1.44-.6s-1.056.192-1.416.6-.552.912-.552 1.56v7.178c0 .072-.024.144-.072.192-.072.072-.144.096-.216.096h-2.809c-.072 0-.144-.024-.192-.096-.072-.048-.096-.12-.096-.192v-11.764c0-.072.024-.144.096-.192.048-.072.12-.096.192-.096h2.809c.072 0 .144.024.216.096.048.048.072.12.072.192v.84c0 .048.024.072.048.096s.048 0 .072-.024c.648-.936 1.632-1.392 2.929-1.392zm17.549 5.089c.096.6.12 1.296.096 2.041-.024.192-.12.288-.312.288H160.4c-.096 0-.12.048-.096.12.048.312.144.648.264.96.408.888 1.272 1.344 2.545 1.344 1.032-.024 1.825-.432 2.425-1.248.072-.096.144-.144.216-.144.048 0 .096.024.168.096l1.729 1.705c.072.072.12.144.12.216a.43.43 0 0 1-.096.192 5 5 0 0 1-2.041 1.512 6.88 6.88 0 0 1-2.737.552c-1.368 0-2.545-.312-3.481-.936-.96-.624-1.657-1.488-2.065-2.617-.336-.792-.504-1.849-.504-3.145 0-.888.12-1.657.36-2.329.36-1.128 1.008-2.041 1.945-2.713.912-.672 1.993-1.008 3.265-1.008 1.608 0 2.881.456 3.865 1.392.96.936 1.536 2.161 1.753 3.721zm-5.594-2.185c-1.008 0-1.681.48-1.993 1.416-.072.216-.12.456-.168.768 0 .072.048.12.12.12h4.153c.096 0 .12-.048.096-.12l-.12-.672c-.144-.48-.408-.864-.744-1.128-.36-.264-.816-.384-1.344-.384zm-37.054-21.248c-.053.053-.107.16-.053.213s.107.107.213.107h14.458a.65.65 0 0 1 .48.213c.107.107.16.267.16.427v5.175c0 .16-.053.32-.16.427a.65.65 0 0 1-.48.213h-24.007c-.16 0-.32-.053-.427-.213-.16-.107-.213-.267-.213-.427v-4.908c0-.32.107-.587.32-.8l5.335-5.602 3.414-3.734 3.041-3.361c3.254-3.574 4.855-6.242 4.855-8.002 0-1.227-.427-2.294-1.334-3.094s-2.027-1.174-3.468-1.174-2.561.373-3.468 1.174-1.334 1.867-1.334 3.201v1.334a.86.86 0 0 1-.16.48.86.86 0 0 1-.48.16h-6.295c-.16 0-.32-.053-.427-.16a.65.65 0 0 1-.213-.48v-2.507c.107-1.921.694-3.628 1.814-5.122 1.12-1.44 2.561-2.561 4.428-3.361 1.814-.8 3.841-1.174 6.135-1.174 2.507 0 4.748.48 6.615 1.387 1.867.96 3.308 2.241 4.268 3.841 1.067 1.6 1.547 3.361 1.547 5.335 0 1.494-.373 3.041-1.12 4.588s-1.867 3.254-3.361 5.068l-3.574 4.108-5.708 5.868-.8.8z"/><path d="M169.026 163.428c.533 1.761.8 3.414.8 5.068 0 1.814-.267 3.468-.854 4.908-.8 2.294-2.241 4.055-4.321 5.388s-4.481 2.027-7.256 2.027c-2.721 0-5.068-.64-7.095-1.921-2.081-1.334-3.521-3.094-4.375-5.335-.373-.907-.64-1.921-.8-2.934v-.107c0-.373.213-.587.64-.587h6.455c.373 0 .587.213.694.587l.16.533c.053.16.107.267.16.373.373.907.907 1.654 1.6 2.134s1.547.747 2.507.747c1.014 0 1.867-.267 2.614-.8s1.28-1.28 1.654-2.241c.373-.694.533-1.654.533-2.774 0-1.014-.16-1.974-.48-2.774-.267-.907-.747-1.654-1.494-2.134a4.7 4.7 0 0 0-2.614-.747c-1.014 0-1.921.213-2.774.694s-1.44 1.067-1.707 1.814c-.107.373-.32.533-.694.533h-6.562c-.16 0-.32-.053-.427-.213-.16-.107-.213-.267-.213-.427v-21.5a.65.65 0 0 1 .213-.48c.107-.107.267-.16.427-.16h22.033c.16 0 .32.053.427.16a.65.65 0 0 1 .213.48v5.175c0 .16-.053.32-.213.427-.107.16-.267.213-.427.213h-14.885a.25.25 0 0 0-.267.267l-.053 7.896c0 .267.107.32.32.16 1.6-1.014 3.468-1.547 5.548-1.547 2.507 0 4.695.64 6.562 1.867 1.867 1.28 3.148 3.041 3.948 5.228z"/></g></g></g></g><defs ><path id="C" d="M158.593 18.955c.133.753.177 1.551.177 2.482l-.044 1.374c0 .355-.177.532-.532.532h-13.87c-.133 0-.222.089-.222.222.089.975.222 1.64.399 1.994.709 2.127 2.437 3.191 5.185 3.235 1.994 0 3.589-.842 4.786-2.482.133-.177.266-.266.443-.266.133 0 .222.044.31.133l2.747 2.26c.266.222.31.443.133.709-.931 1.285-2.127 2.304-3.634 3.013-1.551.709-3.235 1.064-5.096 1.064-2.304 0-4.254-.532-5.849-1.551-1.64-1.019-2.792-2.482-3.545-4.343-.665-1.595-1.019-3.811-1.019-6.647 0-1.728.177-3.102.532-4.165.576-2.083 1.728-3.722 3.368-4.875 1.595-1.196 3.589-1.817 5.894-1.817 5.805 0 9.084 3.058 9.838 9.129zm-9.838-4.697c-1.108 0-1.994.266-2.703.798-.753.576-1.241 1.329-1.551 2.304-.177.487-.31 1.152-.355 1.95-.044.133 0 .222.177.222h8.996c.133 0 .222-.089.222-.222-.044-.753-.133-1.285-.266-1.684-.266-1.064-.798-1.905-1.551-2.482-.798-.576-1.773-.886-2.969-.886z"/><path id="D" d="M207.801 124.133c0-12.678-10.293-22.971-22.971-22.971H77.634c-12.678 0-22.971 10.293-22.971 22.971v107.196c0 12.678 10.293 22.971 22.971 22.971H184.83c12.678 0 22.971-10.293 22.971-22.971V124.133z"/><path id="E" d="M91.856 71.224c0-1.302-1.058-2.36-2.36-2.36s-2.361 1.058-2.361 2.36v41.234c0 1.304 1.058 2.362 2.361 2.362s2.36-1.058 2.36-2.362V71.224z"/></defs></svg>