<svg xmlns="http://www.w3.org/2000/svg" xmlns:xlink="http://www.w3.org/1999/xlink" width="100%" height="100%" viewBox="0 0 256 256" fill-rule="evenodd" stroke-linecap="round" stroke-linejoin="round" stroke-miterlimit="1.5" xmlns:v="https://vecta.io/nano"><style><![CDATA[.B{fill-rule:nonzero}.C{fill:#008bff}]]></style><g transform="translate(-.1 -.1)"><path d="M254.4 45.71c0-24.235-19.675-43.91-43.91-43.91H45.71C21.475 1.8 1.8 21.475 1.8 45.71v164.78c0 24.235 19.675 43.91 43.91 43.91h164.78c24.235 0 43.91-19.675 43.91-43.91V45.71z" fill="#fff" stroke="#000" stroke-width="1.046"/><g transform="matrix(.940266 0 0 .940266 -61.7274 10.0904)" class="B"><g class="C"><use xlink:href="#C"/><path d="M179.531 32.825a.53.53 0 0 1-.576-.443l-7.135-21.625c-.044-.044-.044-.133-.044-.222 0-.266.177-.399.487-.399h4.52c.31 0 .532.133.62.443l4.298 14.801c.044.089.089.133.133.133s.089-.044.133-.133l4.298-14.801c.089-.31.31-.443.62-.443l4.52.089c.177 0 .31.044.399.177.089.089.089.222.044.443l-7.09 21.536a.53.53 0 0 1-.576.443h-4.653z"/><use xlink:href="#C" x="44.137"/><path d="M229.383 9.826c2.393 0 4.298.709 5.761 2.127 1.418 1.418 2.127 3.368 2.127 5.805v14.535c0 .133-.044.266-.133.355a.54.54 0 0 1-.399.177h-4.077c-.133 0-.266-.044-.355-.177-.133-.089-.177-.222-.177-.355V18.822c0-1.374-.399-2.482-1.152-3.324-.753-.798-1.773-1.241-3.058-1.241s-2.304.399-3.102 1.241c-.753.842-1.152 1.905-1.152 3.279v13.516c0 .133-.044.266-.177.355-.089.133-.222.177-.355.177h-4.077c-.133 0-.266-.044-.355-.177-.133-.089-.177-.222-.177-.355v-21.58c0-.133.044-.266.177-.355.089-.133.222-.177.355-.177h4.077c.133 0 .266.044.355.177.133.089.177.222.177.355v1.418c0 .089.044.133.089.177s.089 0 .133-.089c1.196-1.595 3.058-2.393 5.495-2.393zm25.259 3.989c0 .133-.044.266-.133.355a.54.54 0 0 1-.399.177h-4.52c-.133 0-.222.089-.222.222v10.68c0 1.108.266 1.95.753 2.437s1.241.753 2.304.753h1.329c.133 0 .266.044.399.133.089.133.133.266.133.399v3.324c0 .31-.177.532-.532.576l-2.304.044c-2.349 0-4.077-.399-5.229-1.196s-1.728-2.304-1.773-4.52V14.568c0-.133-.089-.222-.222-.222H241.7c-.133 0-.266-.044-.355-.177-.133-.089-.177-.222-.177-.355v-3.102c0-.133.044-.266.177-.355.089-.133.222-.177.355-.177h2.526c.133 0 .222-.089.222-.222V4.775a.54.54 0 0 1 .177-.399c.089-.089.222-.133.355-.133h3.855c.133 0 .266.044.399.133.089.133.133.266.133.399V9.96c0 .133.089.222.222.222h4.52a.54.54 0 0 1 .399.177c.089.089.133.222.133.355v3.102z"/></g><g fill="#0f1031"><path d="M116.816 73.026c-1.914 0-3.55-.518-4.906-1.476-1.396-1.037-2.313-2.353-2.832-4.068-.359-1.157-.518-2.832-.518-4.945 0-1.914.16-3.55.518-4.866.479-1.635 1.396-2.991 2.792-3.948 1.396-.997 3.031-1.516 4.945-1.516 1.954 0 3.629.479 5.065 1.476 1.396.997 2.313 2.194 2.752 3.669l.239 1.196v.08c0 .199-.12.319-.359.359l-1.994.279h-.08c-.199 0-.319-.12-.359-.359l-.12-.598c-.239-.997-.838-1.874-1.755-2.592-.917-.678-2.074-1.037-3.39-1.037s-2.433.359-3.31 1.037c-.917.718-1.476 1.675-1.755 2.832-.239.997-.359 2.353-.359 4.028 0 1.755.12 3.111.359 4.068.279 1.196.838 2.154 1.755 2.832.877.718 1.994 1.077 3.31 1.077s2.433-.359 3.39-1.037c.917-.678 1.516-1.516 1.755-2.592v-.16l.04-.16c.04-.279.199-.359.479-.319l1.954.319c.279.04.399.199.359.439l-.16.798c-.399 1.555-1.316 2.792-2.752 3.749s-3.111 1.436-5.065 1.436z"/><use xlink:href="#D"/><path d="M163.758 52.926c0-.279.12-.399.399-.399h2.034c.279 0 .399.12.399.399v19.383c0 .279-.12.399-.399.399h-2.034c-.279 0-.399-.12-.399-.399v-1.715c0-.04-.04-.08-.08-.12s-.08 0-.12.04c-1.117 1.635-2.872 2.473-5.304 2.473-1.276 0-2.433-.279-3.51-.798-1.077-.479-1.954-1.236-2.552-2.233-.638-.997-.957-2.154-.957-3.55v-13.48c0-.279.12-.399.399-.399h2.034c.279 0 .399.12.399.399v12.643c0 1.516.439 2.712 1.276 3.589.838.917 1.994 1.356 3.47 1.356 1.516 0 2.712-.439 3.629-1.356.877-.917 1.316-2.114 1.316-3.589V52.926z"/><use xlink:href="#E"/><path d="M203.48 54.481c0 .279-.12.399-.399.399h-4.507c-.12 0-.16.04-.16.16v11.765c0 1.276.279 2.154.877 2.672.558.518 1.436.798 2.672.798h.997c.279 0 .399.12.399.399v1.635c0 .279-.12.399-.399.399-.319.04-.798.04-1.476.04-1.914 0-3.35-.359-4.347-1.077s-1.476-2.034-1.476-3.988V55.04c0-.12-.04-.16-.16-.16h-2.433c-.279 0-.399-.12-.399-.399v-1.555c0-.279.12-.399.399-.399h2.433c.12 0 .16-.04.16-.16v-4.626c0-.279.12-.399.399-.399h1.954c.279 0 .399.12.399.399v4.626c0 .12.04.16.16.16h4.507c.279 0 .399.12.399.399v1.555zm17.389-9.292c0-.279.12-.399.399-.399h2.034c.279 0 .399.12.399.399v27.12c0 .279-.12.399-.399.399h-2.034c-.279 0-.399-.12-.399-.399v-1.675c0-.04 0-.08-.04-.12-.04 0-.12.04-.16.08a6.65 6.65 0 0 1-2.154 1.795c-.877.439-1.835.638-2.911.638-1.874 0-3.43-.479-4.666-1.436-1.276-.957-2.154-2.273-2.632-3.908-.359-1.196-.558-2.872-.558-5.065s.16-3.869.479-4.945c.479-1.715 1.356-3.031 2.632-3.988 1.276-.997 2.872-1.476 4.746-1.476 1.037 0 1.994.199 2.872.598.877.439 1.595 1.037 2.194 1.795.04.04.12.08.16.04.04 0 .04-.04.04-.08V45.19zm-.718 22.294c.239-.518.399-1.157.518-1.874s.16-1.715.16-2.991-.04-2.273-.16-3.031c-.12-.718-.279-1.356-.558-1.914a4.62 4.62 0 0 0-1.555-2.194c-.758-.518-1.635-.798-2.632-.798-1.077 0-1.994.279-2.752.798s-1.316 1.236-1.675 2.114a7.61 7.61 0 0 0-.718 1.954c-.12.758-.199 1.755-.199 3.071 0 1.236.04 2.233.16 2.911.12.718.279 1.356.558 1.914a4.25 4.25 0 0 0 1.715 2.273c.798.558 1.755.838 2.872.838 1.077 0 1.954-.279 2.672-.838s1.236-1.316 1.595-2.233z"/><use xlink:href="#D" x="100.304"/><path d="M255.247 72.707c-.199 0-.359-.12-.439-.319l-5.663-19.423-.04-.12c0-.199.12-.319.399-.319h2.074a.4.4 0 0 1 .439.359l4.228 15.714c.04.04.08.08.12.08s.04-.04.08-.08l4.307-15.714a.4.4 0 0 1 .439-.359h1.914c.239 0 .399.12.439.319l4.347 15.714c.04.04.08.08.12.08s.08-.04.12-.08l4.347-15.674a.4.4 0 0 1 .439-.359l2.074.04c.12 0 .239.04.319.12.04.08.08.199.04.319l-5.743 19.383c-.08.199-.239.319-.439.319h-2.114c-.199 0-.359-.12-.439-.319l-4.347-14.916c-.04-.04-.04-.08-.08-.08s-.08.04-.12.08l-4.228 14.916c-.08.199-.239.319-.439.319h-2.154z"/><use xlink:href="#E" x="106.884"/></g></g><g transform="matrix(.952778 0 0 .952778 5.18053 29.3945)"><g transform="matrix(.874814 0 0 .874814 14.6494 3.34407)"><use xlink:href="#F" fill="#fff"/><clipPath id="A"><use xlink:href="#F"/></clipPath><g clip-path="url(#A)" class="C"><path d="M54.663 101.162h153.138v36.158H54.663z"/></g><use xlink:href="#F" fill="none" stroke="#0f1031" stroke-width="5.74"/></g><g fill="#0f1031" stroke="#000" stroke-width="2.371"><use xlink:href="#G" stroke-opacity="0"/><use xlink:href="#G" x="79.916" stroke-opacity="0"/></g><path d="M129.453 133.818a40.77 40.77 0 1 0 0 81.682 40.77 40.77 0 1 0 0-81.682zm0 73.835c-18.227 0-32.994-14.767-32.994-32.994s14.767-32.994 32.994-32.994 32.994 14.767 32.994 32.994-14.767 32.994-32.994 32.994zm10.21-17.214c.844.591 2.11.422 2.785-.422l3.038-4.304c.675-.844.506-2.11-.422-2.785l-10.97-8.016v-23.29c0-1.097-.928-2.025-2.025-2.025h-5.232c-1.097 0-2.025.928-2.025 2.025v27.002a1.92 1.92 0 0 0 .844 1.603l14.007 10.21z" class="B C"/></g></g><defs ><path id="C" d="M169.516 18.955c.133.753.177 1.551.177 2.482l-.044 1.374c0 .355-.177.532-.532.532h-13.87c-.133 0-.222.089-.222.222.089.975.222 1.64.399 1.994.709 2.127 2.437 3.191 5.185 3.235 1.994 0 3.589-.842 4.786-2.482.133-.177.266-.266.443-.266.133 0 .222.044.31.133l2.747 2.26c.266.222.31.443.133.709-.931 1.285-2.127 2.304-3.634 3.013-1.551.709-3.235 1.064-5.096 1.064-2.304 0-4.254-.532-5.849-1.551-1.64-1.019-2.792-2.482-3.545-4.343-.665-1.595-1.019-3.811-1.019-6.647 0-1.728.177-3.102.532-4.165.576-2.083 1.728-3.722 3.368-4.875 1.595-1.196 3.589-1.817 5.894-1.817 5.805 0 9.084 3.058 9.838 9.129zm-9.838-4.697c-1.108 0-1.994.266-2.703.798-.753.576-1.241 1.329-1.551 2.304-.177.487-.31 1.152-.355 1.95-.044.133 0 .222.177.222h8.996c.133 0 .222-.089.222-.222-.044-.753-.133-1.285-.266-1.684-.266-1.064-.798-1.905-1.551-2.482-.798-.576-1.773-.886-2.969-.886z"/><path id="D" d="M137.515 73.026c-1.914 0-3.55-.479-4.945-1.476s-2.353-2.353-2.872-4.068c-.359-1.236-.558-2.872-.558-4.906s.199-3.669.558-4.866c.518-1.715 1.436-3.031 2.832-4.028s3.071-1.476 5.025-1.476c1.874 0 3.51.479 4.906 1.476 1.356.997 2.273 2.313 2.792 3.988.359 1.157.558 2.792.558 4.906 0 2.154-.199 3.789-.558 4.906-.518 1.715-1.436 3.071-2.792 4.068-1.396.997-3.031 1.476-4.945 1.476zm0-2.473c1.276 0 2.353-.359 3.27-1.077.917-.678 1.516-1.635 1.835-2.832.239-.957.359-2.313.359-4.028 0-1.755-.12-3.111-.319-4.028-.319-1.196-.917-2.154-1.835-2.872-.917-.678-2.034-1.037-3.35-1.037s-2.393.359-3.31 1.037c-.917.718-1.516 1.675-1.835 2.872-.199.917-.319 2.273-.319 4.028s.12 3.111.319 4.028c.279 1.196.917 2.154 1.835 2.832.917.718 2.034 1.077 3.35 1.077z"/><path id="E" d="M181.306 52.248c2.114 0 3.829.638 5.105 1.874 1.236 1.236 1.874 2.911 1.874 5.025v13.161c0 .279-.12.399-.399.399h-2.034c-.279 0-.399-.12-.399-.399V59.706c0-1.476-.439-2.672-1.316-3.589-.917-.917-2.074-1.396-3.47-1.396-1.476 0-2.632.439-3.55 1.356s-1.356 2.074-1.356 3.55v12.683c0 .279-.12.399-.399.399h-2.034c-.279 0-.399-.12-.399-.399V52.926c0-.279.12-.399.399-.399h2.034c.279 0 .399.12.399.399v1.715c0 .04.04.08.08.12s.04 0 .08-.04c1.157-1.635 2.951-2.473 5.384-2.473z"/><path id="F" d="M207.801 124.133c0-12.678-10.293-22.971-22.971-22.971H77.634c-12.678 0-22.971 10.293-22.971 22.971v107.196c0 12.678 10.293 22.971 22.971 22.971H184.83c12.678 0 22.971-10.293 22.971-22.971V124.133z"/><path id="G" d="M91.856 71.224c0-1.302-1.058-2.36-2.36-2.36s-2.361 1.058-2.361 2.36v41.234c0 1.304 1.058 2.362 2.361 2.362s2.36-1.058 2.36-2.362V71.224z"/></defs></svg>