<svg xmlns="http://www.w3.org/2000/svg" xmlns:xlink="http://www.w3.org/1999/xlink" width="100%" height="100%" viewBox="0 0 256 256" fill-rule="evenodd" stroke-linecap="round" stroke-linejoin="round" stroke-miterlimit="1.5" xmlns:v="https://vecta.io/nano"><g transform="translate(-.1 -.1)"><path d="M254.4 45.71c0-24.235-19.675-43.91-43.91-43.91H45.71C21.475 1.8 1.8 21.475 1.8 45.71v164.78c0 24.235 19.675 43.91 43.91 43.91h164.78c24.235 0 43.91-19.675 43.91-43.91V45.71z" fill="#fff" stroke="#000" stroke-width="1.253"/><g transform="matrix(.940266 0 0 .940266 -62.2241 7.54036)"><g fill="#008bff" fill-rule="nonzero"><path d="M98.251 14.213c.186 0 .266.08.266.266v1.143c0 .186-.08.266-.266.266H93.04c-.08 0-.106.027-.106.106v16.564c0 .186-.08.266-.266.266h-1.356c-.186 0-.266-.08-.266-.266V15.995c0-.08-.027-.106-.106-.106h-5c-.186 0-.266-.08-.266-.266V14.48c0-.186.08-.266.266-.266h12.31zm9.119 4.972c1.409 0 2.552.425 3.403 1.25.824.824 1.25 1.941 1.25 3.35v8.774c0 .186-.08.266-.266.266h-1.356c-.186 0-.266-.08-.266-.266v-8.402c0-.984-.292-1.781-.877-2.393-.612-.612-1.383-.931-2.313-.931-.984 0-1.755.292-2.366.904s-.904 1.383-.904 2.366v8.455c0 .186-.08.266-.266.266h-1.356c-.186 0-.266-.08-.266-.266v-18.08c0-.186.08-.266.266-.266h1.356c.186 0 .266.08.266.266v6.301c0 .027.027.053.053.08s.027 0 .053-.027c.771-1.09 1.968-1.648 3.589-1.648z"/><use xlink:href="#C"/><path d="M147.838 15.596c0 .186-.08.266-.266.266h-9.784c-.08 0-.106.027-.106.106v6.567c0 .08.027.106.106.106h6.86c.186 0 .266.08.266.266v1.117c0 .186-.08.266-.266.266h-6.86c-.08 0-.106.027-.106.106v6.674c0 .08.027.106.106.106h9.784c.186 0 .266.08.266.266v1.117c0 .186-.08.266-.266.266h-11.513c-.186 0-.266-.08-.266-.266v-18.08c0-.186.08-.266.266-.266h11.513c.186 0 .266.08.266.266v1.117zm7.099 17.229a.32.32 0 0 1-.319-.213l-4.36-12.948-.027-.106c0-.133.08-.186.239-.186h1.516a.32.32 0 0 1 .319.213l3.324 10.423c.027.027.053.053.08.053s.053-.027.08-.053l3.324-10.423a.32.32 0 0 1 .319-.213l1.516.027c.186 0 .266.106.213.292l-4.36 12.922a.32.32 0 0 1-.319.213h-1.542z"/><use xlink:href="#C" x="47.752"/><use xlink:href="#D"/><path d="M198.223 20.674c0 .186-.08.266-.266.266h-3.004c-.08 0-.106.027-.106.106v7.844c0 .851.186 1.436.585 1.781.372.346.957.532 1.781.532h.665c.186 0 .266.08.266.266v1.09c0 .186-.08.266-.266.266-.213.027-.532.027-.984.027-1.276 0-2.233-.239-2.898-.718s-.984-1.356-.984-2.659v-8.428c0-.08-.027-.106-.106-.106h-1.622c-.186 0-.266-.08-.266-.266v-1.037c0-.186.08-.266.266-.266h1.622c.08 0 .106-.027.106-.106v-3.084c0-.186.08-.266.266-.266h1.303c.186 0 .266.08.266.266v3.084c0 .08.027.106.106.106h3.004c.186 0 .266.08.266.266v1.037zm8.056 12.284c-.984 0-1.888-.16-2.632-.479-.798-.319-1.383-.744-1.781-1.276-.425-.532-.638-1.117-.638-1.781v-.319c0-.186.08-.266.266-.266h1.276c.186 0 .266.08.266.266v.213c0 .585.319 1.09.931 1.516.612.452 1.356.665 2.287.665s1.675-.213 2.233-.638c.558-.399.851-.931.851-1.569 0-.452-.133-.798-.452-1.09-.266-.292-.612-.505-1.01-.665s-1.037-.372-1.861-.612l-2.446-.851c-.638-.292-1.17-.691-1.595-1.196-.452-.505-.665-1.143-.665-1.914a3.23 3.23 0 0 1 1.329-2.712c.877-.665 2.047-1.01 3.51-1.01.984 0 1.835.16 2.606.479.744.319 1.329.744 1.728 1.303a3.2 3.2 0 0 1 .612 1.888v.08c0 .186-.08.266-.266.266h-1.25c-.186 0-.266-.08-.266-.266v-.08c0-.612-.292-1.117-.851-1.516-.585-.399-1.356-.612-2.34-.612-.904 0-1.622.186-2.18.532a1.72 1.72 0 0 0-.824 1.516 1.51 1.51 0 0 0 .798 1.383c.532.319 1.356.638 2.473.957a22.23 22.23 0 0 1 2.499.851 4.49 4.49 0 0 1 1.648 1.143c.452.505.691 1.17.691 1.994 0 1.143-.452 2.074-1.356 2.765s-2.1 1.037-3.589 1.037zm19.728.106c-1.25 0-2.34-.239-3.27-.744-.931-.479-1.675-1.17-2.18-2.074-.532-.877-.798-1.914-.798-3.084V19.85c0-1.143.266-2.18.798-3.058.505-.877 1.25-1.569 2.18-2.074.931-.479 2.021-.718 3.27-.718s2.34.239 3.27.718 1.675 1.143 2.207 2.021c.505.877.771 1.861.771 3.004 0 .08-.027.16-.08.213a.24.24 0 0 1-.186.08l-1.356.08c-.186 0-.266-.08-.266-.239v-.08c0-1.25-.399-2.26-1.196-3.031-.798-.744-1.861-1.117-3.164-1.117s-2.366.372-3.164 1.143-1.196 1.755-1.196 3.004v7.445c0 1.25.399 2.233 1.196 3.004s1.861 1.143 3.164 1.143 2.366-.372 3.164-1.143c.798-.744 1.196-1.755 1.196-3.004v-.053c0-.16.08-.239.266-.239l1.356.08c.186 0 .266.08.266.239 0 1.143-.266 2.154-.771 3.031a5.46 5.46 0 0 1-2.207 2.047c-.931.478-2.021.718-3.27.718z"/><use xlink:href="#E"/><path d="M249.777 32.825c-.186 0-.266-.08-.266-.266v-18.08c0-.186.08-.266.266-.266h1.356c.186 0 .266.08.266.266v18.08c0 .186-.08.266-.266.266h-1.356z"/><use xlink:href="#C" x="139.694"/><use xlink:href="#D" x="91.942"/><path d="M292.292 14.479c0-.186.08-.266.266-.266h1.356c.186 0 .266.08.266.266v18.08c0 .186-.08.266-.266.266h-1.356c-.186 0-.266-.08-.266-.266v-1.117c0-.027 0-.053-.027-.08-.027 0-.08.027-.106.053-.399.505-.877.904-1.436 1.196-.585.292-1.223.425-1.941.425-1.25 0-2.287-.319-3.111-.957-.851-.638-1.436-1.516-1.755-2.606-.239-.798-.372-1.914-.372-3.377s.106-2.579.319-3.297c.319-1.143.904-2.021 1.755-2.659.851-.665 1.914-.984 3.164-.984.691 0 1.329.133 1.914.399.585.292 1.064.691 1.462 1.196.027.027.08.053.106.027.027 0 .027-.027.027-.053v-6.248zm-.479 14.863c.16-.346.266-.771.346-1.25s.106-1.143.106-1.994-.027-1.516-.106-2.021c-.08-.479-.186-.904-.372-1.276a3.08 3.08 0 0 0-1.037-1.462 3.04 3.04 0 0 0-1.755-.532c-.718 0-1.329.186-1.835.532s-.877.824-1.117 1.409c-.213.399-.372.824-.479 1.303-.08.505-.133 1.17-.133 2.047 0 .824.027 1.489.106 1.941.08.479.186.904.372 1.276.213.638.585 1.143 1.143 1.516.532.372 1.17.558 1.914.558.718 0 1.303-.186 1.781-.558s.824-.877 1.064-1.489z"/><use xlink:href="#E" x="62.536"/><path d="M317.47 19.239c.585 0 1.09.106 1.516.346.133.08.186.186.16.346l-.292 1.303c-.053.186-.16.239-.346.16-.292-.133-.638-.186-1.037-.186l-.346.027c-.931.027-1.675.372-2.287 1.01-.612.665-.904 1.489-.904 2.473v7.844c0 .186-.08.266-.266.266h-1.356c-.186 0-.266-.08-.266-.266V19.637c0-.186.08-.266.266-.266h1.356c.186 0 .266.08.266.266v1.622c0 .053.027.08.053.08.027.027.027 0 .053-.027.372-.665.851-1.17 1.436-1.542.558-.346 1.223-.532 1.994-.532z"/></g><g fill="#0f1031"><path d="M169.521 72.707c-.248 0-.39-.106-.461-.355l-1.17-3.793c-.035-.106-.106-.142-.177-.142h-9.359c-.071 0-.142.035-.177.142l-1.17 3.793c-.071.248-.213.355-.461.355H153c-.142 0-.248-.035-.319-.142-.071-.071-.071-.177-.035-.355l7.693-23.965c.071-.248.213-.355.461-.355h4.431c.248 0 .39.106.461.355l7.728 23.965c.035.035.035.106.035.177 0 .213-.142.319-.39.319h-3.545zm-10.245-7.728c-.035.142.035.213.142.213h7.197c.142 0 .177-.071.142-.213l-3.651-11.876c-.035-.106-.071-.142-.106-.142s-.071.035-.106.142l-3.616 11.876z" fill-rule="nonzero"/><use xlink:href="#F" fill-rule="nonzero"/><use xlink:href="#F" x="19.817" fill-rule="nonzero"/><path d="M223.477 72.991c-1.879 0-3.474-.461-4.821-1.418-1.312-.957-2.269-2.269-2.801-3.935a13.76 13.76 0 0 1-.603-4.041c0-1.524.177-2.872.567-4.041.532-1.666 1.489-2.942 2.836-3.864s2.978-1.383 4.857-1.383c1.808 0 3.368.461 4.644 1.383 1.347.922 2.269 2.198 2.801 3.829.425 1.134.638 2.482.638 4.041 0 1.489-.213 2.836-.603 4.041-.532 1.666-1.489 3.013-2.801 3.935-1.312.957-2.907 1.453-4.715 1.453zm0-3.545c.886 0 1.631-.248 2.269-.744.603-.496 1.064-1.205 1.347-2.092.248-.78.355-1.773.355-2.978 0-1.276-.106-2.269-.355-2.978-.248-.886-.709-1.595-1.347-2.092-.638-.461-1.418-.709-2.34-.709-.886 0-1.631.248-2.269.709-.638.496-1.099 1.205-1.383 2.092-.248.815-.355 1.808-.355 2.978s.106 2.163.355 2.978c.248.886.709 1.595 1.383 2.092.638.496 1.418.744 2.34.744zm20.703-15.138c1.914 0 3.439.567 4.609 1.702 1.134 1.134 1.702 2.694 1.702 4.644v11.628c0 .106-.035.213-.106.284-.106.106-.213.142-.319.142h-3.261c-.106 0-.213-.035-.284-.142-.106-.071-.142-.177-.142-.284V61.505c0-1.099-.319-1.985-.922-2.659-.603-.638-1.418-.993-2.446-.993s-1.843.319-2.482.993c-.603.674-.922 1.524-.922 2.623v10.813c0 .106-.035.213-.142.284-.071.106-.177.142-.284.142h-3.261c-.106 0-.213-.035-.284-.142-.106-.071-.142-.177-.142-.284V55.017c0-.106.035-.213.142-.284.071-.106.177-.142.284-.142h3.261c.106 0 .213.035.284.142.106.071.142.177.142.284v1.134c0 .071.035.106.071.142s.071 0 .106-.071c.957-1.276 2.446-1.914 4.396-1.914z" fill-rule="nonzero"/></g></g><g transform="matrix(.946359 0 0 .946359 5.58152 30.2778)"><g transform="matrix(.874814 0 0 .874814 14.6494 3.34407)"><use xlink:href="#G" fill="#fff"/><clipPath id="A"><use xlink:href="#G"/></clipPath><g clip-path="url(#A)"><path d="M54.663 101.162h153.138v36.158H54.663z" fill="#008bff"/></g><use xlink:href="#G" fill="none" stroke="#0f1031" stroke-width="5.74"/></g><g fill="#0f1031"><use xlink:href="#H"/><use xlink:href="#H" x="79.916"/></g><path d="M101.277 145.383c0-3.252-2.64-5.891-5.891-5.891H83.604c-3.252 0-5.891 2.639-5.891 5.891v11.782c0 3.251 2.639 5.891 5.891 5.891h11.782c3.251 0 5.891-2.64 5.891-5.891v-11.782zm39.958 0c0-3.252-2.64-5.891-5.891-5.891h-11.782c-3.252 0-5.891 2.639-5.891 5.891v11.782c0 3.251 2.639 5.891 5.891 5.891h11.782c3.251 0 5.891-2.64 5.891-5.891v-11.782zm39.958 0c0-3.252-2.64-5.891-5.891-5.891H163.52c-3.252 0-5.891 2.639-5.891 5.891v11.782c0 3.251 2.639 5.891 5.891 5.891h11.782c3.251 0 5.891-2.64 5.891-5.891v-11.782zm-79.916 42.877c0-3.252-2.64-5.891-5.891-5.891H83.604c-3.252 0-5.891 2.639-5.891 5.891v11.782c0 3.251 2.639 5.891 5.891 5.891h11.782c3.251 0 5.891-2.64 5.891-5.891V188.26zm39.958 0c0-3.252-2.64-5.891-5.891-5.891h-11.782c-3.252 0-5.891 2.639-5.891 5.891v11.782c0 3.251 2.639 5.891 5.891 5.891h11.782c3.251 0 5.891-2.64 5.891-5.891V188.26zm39.958 0c0-3.252-2.64-5.891-5.891-5.891H163.52c-3.252 0-5.891 2.639-5.891 5.891v11.782c0 3.251 2.639 5.891 5.891 5.891h11.782c3.251 0 5.891-2.64 5.891-5.891V188.26z" fill="#008bff"/></g></g><defs ><path id="C" d="M126.248 23.838c.08.505.106 1.117.106 1.861v.851c0 .186-.08.266-.266.266h-8.588c-.08 0-.106.027-.106.106.027.984.08 1.595.16 1.888.186.798.612 1.436 1.25 1.888s1.462.691 2.446.691c.744 0 1.409-.16 1.968-.505a3.65 3.65 0 0 0 1.329-1.436c.106-.16.239-.186.372-.106l1.037.612a.26.26 0 0 1 .106.372c-.452.851-1.117 1.516-1.994 1.994-.877.505-1.914.744-3.058.744-1.25-.027-2.313-.319-3.164-.904s-1.462-1.409-1.835-2.446c-.319-.851-.479-2.074-.479-3.669l.053-1.835c.027-.452.08-.877.186-1.25.292-1.143.904-2.074 1.808-2.765.931-.691 2.021-1.037 3.324-1.037 1.622 0 2.845.399 3.722 1.223s1.409 1.968 1.622 3.456zm-5.344-3.031c-.877 0-1.595.213-2.154.665a3.25 3.25 0 0 0-1.143 1.835c-.106.372-.186.984-.213 1.808 0 .08.027.106.106.106h6.886c.08 0 .106-.027.106-.106-.027-.798-.08-1.356-.16-1.702-.186-.798-.585-1.436-1.17-1.914-.612-.452-1.356-.691-2.26-.691z"/><path id="D" d="M183.44 19.185c1.409 0 2.552.425 3.403 1.25.824.824 1.25 1.941 1.25 3.35v8.774c0 .186-.08.266-.266.266h-1.356c-.186 0-.266-.08-.266-.266v-8.402c0-.984-.292-1.781-.877-2.393-.612-.612-1.383-.931-2.313-.931-.984 0-1.755.292-2.366.904s-.904 1.383-.904 2.366v8.455c0 .186-.08.266-.266.266h-1.356c-.186 0-.266-.08-.266-.266V19.637c0-.186.08-.266.266-.266h1.356c.186 0 .266.08.266.266v1.143c0 .027.027.053.053.08s.027 0 .053-.027c.771-1.09 1.968-1.648 3.589-1.648z"/><path id="E" d="M240.577 19.159c1.595 0 2.818.399 3.696 1.223s1.303 1.888 1.303 3.244v8.934c0 .186-.08.266-.266.266h-1.356c-.186 0-.266-.08-.266-.266v-1.09c0-.027 0-.053-.027-.08s-.08 0-.106.027c-.452.532-1.01.931-1.728 1.196-.718.292-1.489.425-2.366.425-1.25 0-2.313-.319-3.164-.957s-1.276-1.622-1.276-2.925c0-1.329.479-2.393 1.462-3.164.957-.744 2.287-1.143 4.015-1.143h3.084c.08 0 .106-.027.106-.106v-1.01c0-.904-.239-1.622-.744-2.154-.505-.505-1.303-.771-2.366-.771-.851 0-1.542.16-2.074.479-.532.346-.851.798-.984 1.383-.053.186-.16.266-.319.239l-1.436-.186c-.186-.027-.266-.106-.239-.213.133-.984.665-1.808 1.595-2.42s2.074-.931 3.456-.931zm-.744 12.257c1.037 0 1.941-.266 2.712-.798.771-.505 1.143-1.223 1.143-2.1v-2.074c0-.08-.027-.106-.106-.106h-2.792c-1.17 0-2.1.239-2.818.718s-1.064 1.143-1.064 1.994c0 .771.266 1.356.824 1.755.532.399 1.223.612 2.1.612z"/><path id="F" d="M187.388 48.317c0-.106.035-.213.142-.319.071-.071.177-.106.284-.106h3.261c.106 0 .213.035.319.106.071.106.106.213.106.319v23.965c0 .106-.035.213-.106.284-.106.106-.213.142-.319.142h-3.261c-.106 0-.213-.035-.284-.142-.106-.071-.142-.177-.142-.284v-1.064c0-.071-.035-.106-.071-.142s-.106 0-.142.071c-1.028 1.241-2.411 1.843-4.077 1.843s-3.084-.425-4.254-1.312-1.985-2.092-2.517-3.651c-.425-1.312-.638-2.801-.638-4.431 0-1.666.213-3.12.603-4.325.532-1.56 1.347-2.765 2.517-3.651s2.623-1.312 4.36-1.312c1.631 0 2.978.603 4.006 1.773.035.035.106.071.142.035.035 0 .071-.035.071-.106v-7.693zm-.851 19.427c.532-.957.815-2.34.815-4.112 0-1.843-.284-3.261-.886-4.219-.638-1.028-1.524-1.56-2.694-1.56-1.205 0-2.163.496-2.836 1.489-.709 1.028-1.064 2.482-1.064 4.325 0 1.666.284 3.013.851 4.077.674 1.134 1.666 1.702 3.013 1.702 1.205 0 2.127-.567 2.801-1.702z"/><path id="G" d="M207.801 124.133c0-12.678-10.293-22.971-22.971-22.971H77.634c-12.678 0-22.971 10.293-22.971 22.971v107.196c0 12.678 10.293 22.971 22.971 22.971H184.83c12.678 0 22.971-10.293 22.971-22.971V124.133z"/><path id="H" d="M91.856 71.224c0-1.302-1.058-2.36-2.36-2.36s-2.361 1.058-2.361 2.36v41.234c0 1.304 1.058 2.362 2.361 2.362s2.36-1.058 2.36-2.362V71.224z"/></defs></svg>