<svg xmlns:xlink="http://www.w3.org/1999/xlink" id="svg" version="1.1" width="32" height="32" viewBox="0 0 400 400" xmlns="http://www.w3.org/2000/svg"><g id="svgg" fill="#1E1E1E"><path id="path0" d="M82.400 202.202 L 82.400 230.005 114.100 229.902 L 145.800 229.800 145.903 202.100 L 146.005 174.400 114.203 174.400 L 82.400 174.400 82.400 202.202 M162.400 202.202 L 162.400 230.005 194.100 229.902 L 225.800 229.800 225.903 202.100 L 226.005 174.400 194.203 174.400 L 162.400 174.400 162.400 202.202 M242.400 202.202 L 242.400 230.005 274.100 229.902 L 305.800 229.800 305.903 202.100 L 306.005 174.400 274.203 174.400 L 242.400 174.400 242.400 202.202 M82.400 274.202 L 82.400 302.005 114.100 301.902 L 145.800 301.800 145.903 274.100 L 146.005 246.400 114.203 246.400 L 82.400 246.400 82.400 274.202 M162.400 274.202 L 162.400 302.005 194.100 301.902 L 225.800 301.800 225.903 274.100 L 226.005 246.400 194.203 246.400 L 162.400 246.400 162.400 274.202 M242.400 274.202 L 242.400 302.005 274.100 301.902 L 305.800 301.800 305.903 274.100 L 306.005 246.400 274.203 246.400 L 242.400 246.400 242.400 274.202 " stroke="none" fill="#222222" fill-rule="evenodd"></path><path id="path1" d="M86.400 28.400 L 86.400 54.400 44.400 54.400 L 2.400 54.400 2.400 226.200 L 2.400 398.001 200.100 397.900 L 397.800 397.800 397.900 226.100 L 398.001 54.400 356.000 54.400 L 314.000 54.400 314.000 28.400 L 314.000 2.400 282.200 2.400 L 250.400 2.400 250.400 28.400 L 250.400 54.400 200.200 54.400 L 150.000 54.400 150.000 28.400 L 150.000 2.400 118.200 2.400 L 86.400 2.400 86.400 28.400 M350.400 242.200 L 350.400 358.400 198.200 358.400 L 46.000 358.400 46.000 242.200 L 46.000 126.000 198.200 126.000 L 350.400 126.000 350.400 242.200 " stroke="none" fill="#0C94C4" fill-rule="evenodd"></path></g></svg>