<svg xmlns="http://www.w3.org/2000/svg" xmlns:xlink="http://www.w3.org/1999/xlink" width="100%" height="100%" viewBox="0 0 256 256" fill-rule="evenodd" stroke-linecap="square" stroke-linejoin="round" stroke-miterlimit="1.5" xmlns:v="https://vecta.io/nano"><g transform="matrix(1.56203 0 0 1.56203 -74.2087 -104.144)"><g transform="matrix(.874814 0 0 .874814 14.6494 3.34407)"><use xlink:href="#D" fill="#fff"/><clipPath id="A"><use xlink:href="#D"/></clipPath><g clip-path="url(#A)"><g transform="matrix(.886898 0 0 .831383 12.5392 30.903)"><path d="M47.496 84.509h172.667V128H47.496z" fill="url(#B)"/></g></g><use xlink:href="#D" fill="none" stroke="#010051" stroke-width="5.74"/></g><g fill="#010051"><use xlink:href="#E"/><use xlink:href="#E" x="79.916"/></g><g transform="matrix(.955749 0 0 .955749 5.72841 10.0732)"><use xlink:href="#F" fill="url(#C)" transform="matrix(1.12209 0 0 1.12209 66.3639 14.5309)"/><use xlink:href="#F" fill="url(#C)" transform="matrix(1.12209 0 0 1.12209 26.4061 14.5309)"/><use xlink:href="#F" fill="url(#C)" transform="matrix(1.12209 0 0 1.12209 -13.5518 14.5309)"/><use xlink:href="#F" fill="url(#C)" transform="matrix(1.12209 0 0 1.12209 66.3639 -28.3454)"/><use xlink:href="#F" fill="url(#C)" transform="matrix(1.12209 0 0 1.12209 26.4061 -28.3454)"/><use xlink:href="#F" fill="url(#C)" transform="matrix(1.12209 0 0 1.12209 -13.5518 -28.3454)"/></g></g><defs><linearGradient id="B" x1="0" y1="0" x2="1" y2="0" gradientUnits="userSpaceOnUse" gradientTransform="matrix(3.76053e-15,65.5149,-61.414,4.01163e-15,133.829,84.509)"><stop offset="0" stop-color="#eb2a5b"/><stop offset="1" stop-color="#4d4464"/></linearGradient><linearGradient id="C" x1="99.952" y1="151.573" x2="82.832" y2="168.079" gradientUnits="userSpaceOnUse"><stop offset="0" stop-color="#eb2a5b"/><stop offset="1" stop-color="#424665"/></linearGradient><path id="D" d="M207.801 124.133c0-12.678-10.293-22.971-22.971-22.971H77.634c-12.678 0-22.971 10.293-22.971 22.971v107.196c0 12.678 10.293 22.971 22.971 22.971H184.83c12.678 0 22.971-10.293 22.971-22.971V124.133z"/><path id="E" d="M91.856 71.224c0-1.302-1.058-2.36-2.36-2.36s-2.361 1.058-2.361 2.36v41.234c0 1.304 1.058 2.362 2.361 2.362s2.36-1.058 2.36-2.362V71.224z"/><path id="F" d="M102.335 154.826c0-2.898-2.353-5.25-5.25-5.25h-10.5c-2.898 0-5.25 2.352-5.25 5.25v10.5c0 2.897 2.352 5.25 5.25 5.25h10.5c2.897 0 5.25-2.353 5.25-5.25v-10.5z"/></defs></svg>