<svg xmlns="http://www.w3.org/2000/svg" xmlns:xlink="http://www.w3.org/1999/xlink" width="100%" height="100%" viewBox="0 0 256 256" fill-rule="evenodd" stroke-linecap="square" stroke-linejoin="round" stroke-miterlimit="1.5" xmlns:v="https://vecta.io/nano"><g transform="matrix(1.56203 0 0 1.56203 -74.2087 -104.144)"><g transform="matrix(.874814 0 0 .874814 14.6494 3.34407)"><use xlink:href="#C" fill="#fff"/><clipPath id="A"><use xlink:href="#C"/></clipPath><g clip-path="url(#A)"><path d="M54.663 101.162h153.138v36.158H54.663z" fill="#008bff"/></g><use xlink:href="#C" fill="none" stroke="#0f1031" stroke-width="5.74"/></g><g fill="#0f1031"><use xlink:href="#D"/><use xlink:href="#D" x="79.916"/></g><path d="M101.277 145.383c0-3.252-2.64-5.891-5.891-5.891H83.604c-3.252 0-5.891 2.639-5.891 5.891v11.782c0 3.251 2.639 5.891 5.891 5.891h11.782c3.251 0 5.891-2.64 5.891-5.891v-11.782zm39.958 0c0-3.252-2.64-5.891-5.891-5.891h-11.782c-3.252 0-5.891 2.639-5.891 5.891v11.782c0 3.251 2.639 5.891 5.891 5.891h11.782c3.251 0 5.891-2.64 5.891-5.891v-11.782zm39.958 0c0-3.252-2.64-5.891-5.891-5.891H163.52c-3.252 0-5.891 2.639-5.891 5.891v11.782c0 3.251 2.639 5.891 5.891 5.891h11.782c3.251 0 5.891-2.64 5.891-5.891v-11.782zm-79.916 42.877c0-3.252-2.64-5.891-5.891-5.891H83.604c-3.252 0-5.891 2.639-5.891 5.891v11.782c0 3.251 2.639 5.891 5.891 5.891h11.782c3.251 0 5.891-2.64 5.891-5.891V188.26zm39.958 0c0-3.252-2.64-5.891-5.891-5.891h-11.782c-3.252 0-5.891 2.639-5.891 5.891v11.782c0 3.251 2.639 5.891 5.891 5.891h11.782c3.251 0 5.891-2.64 5.891-5.891V188.26zm39.958 0c0-3.252-2.64-5.891-5.891-5.891H163.52c-3.252 0-5.891 2.639-5.891 5.891v11.782c0 3.251 2.639 5.891 5.891 5.891h11.782c3.251 0 5.891-2.64 5.891-5.891V188.26z" fill="#008bff"/></g><defs ><path id="C" d="M207.801 124.133c0-12.678-10.293-22.971-22.971-22.971H77.634c-12.678 0-22.971 10.293-22.971 22.971v107.196c0 12.678 10.293 22.971 22.971 22.971H184.83c12.678 0 22.971-10.293 22.971-22.971V124.133z"/><path id="D" d="M91.856 71.224c0-1.302-1.058-2.36-2.36-2.36s-2.361 1.058-2.361 2.36v41.234c0 1.304 1.058 2.362 2.361 2.362s2.36-1.058 2.36-2.362V71.224z"/></defs></svg>