<svg xmlns="http://www.w3.org/2000/svg" xmlns:xlink="http://www.w3.org/1999/xlink" width="100%" height="100%" viewBox="0 0 256 256" fill-rule="evenodd" stroke-linecap="square" stroke-linejoin="round" stroke-miterlimit="1.5" xmlns:v="https://vecta.io/nano"><g transform="matrix(1.56203 0 0 1.56203 -74.2087 -104.144)"><g transform="matrix(.874814 0 0 .874814 14.6494 3.34407)"><use xlink:href="#C" fill="#fff"/><clipPath id="A"><use xlink:href="#C"/></clipPath><g clip-path="url(#A)"><path d="M54.663 101.162h153.138v36.158H54.663z" fill="#008bff"/></g><use xlink:href="#C" fill="none" stroke="#0f1031" stroke-width="5.74"/></g><g fill="#0f1031"><use xlink:href="#D"/><use xlink:href="#D" x="79.916"/></g><g fill="#d5d4d2"><path d="M105.428 139.162c0-3.108-2.523-5.63-5.63-5.63H88.537c-3.108 0-5.63 2.522-5.63 5.63v11.261c0 3.107 2.522 5.63 5.63 5.63h11.261c3.107 0 5.63-2.523 5.63-5.63v-11.261zm70.571 0c0-3.108-2.524-5.63-5.632-5.63h-52.91c-3.108 0-5.629 2.522-5.629 5.63v11.261c0 3.107 2.521 5.63 5.629 5.63h52.91c3.108 0 5.632-2.523 5.632-5.63v-11.261z"/><use xlink:href="#E"/><use xlink:href="#E" y="28.923"/></g></g><defs ><path id="C" d="M207.801 124.133c0-12.678-10.293-22.971-22.971-22.971H77.634c-12.678 0-22.971 10.293-22.971 22.971v107.196c0 12.678 10.293 22.971 22.971 22.971H184.83c12.678 0 22.971-10.293 22.971-22.971V124.133z"/><path id="D" d="M91.856 71.224c0-1.302-1.058-2.36-2.36-2.36s-2.361 1.058-2.361 2.36v41.234c0 1.304 1.058 2.362 2.361 2.362s2.36-1.058 2.36-2.362V71.224z"/><path id="E" d="M176 168.085c0-3.108-2.522-5.63-5.63-5.63H88.537c-3.108 0-5.63 2.522-5.63 5.63v11.261c0 3.107 2.522 5.63 5.63 5.63h81.834c3.108 0 5.63-2.523 5.63-5.63v-11.261z"/></defs></svg>